<?xml version="1.0" encoding="UTF-8" standalone="no"?>
<!-- Created with Inkscape (http://www.inkscape.org/) -->

<svg
   width="240mm"
   height="240mm"
   viewBox="0 0 240 240"
   version="1.1"
   id="svg1"
   xml:space="preserve"
   xmlns="http://www.w3.org/2000/svg"
   xmlns:svg="http://www.w3.org/2000/svg"><defs
     id="defs1" /><g
     id="layer1"><path
       style="fill:#000000"
       d="M 129.28,185.88155 C 119.26313,183.72241 110.30127,176.98662 106.10523,168.46324 104.12849,164.44791 104,163.77514 104,157.44 c 0,-6.38458 0.11761,-6.98679 2.19002,-11.21346 4.06394,-8.28841 11.93353,-14.22727 22.48242,-16.96658 7.97165,-2.07005 16.87715,-1.3736 24.56301,1.92094 l 2.92455,1.25361 V 100.1167 c 0,-34.762187 0.0681,-35.537245 3.30654,-37.615625 0.8214,-0.527167 10.98458,-3.312155 22.58483,-6.188862 19.75153,-4.898113 21.24809,-5.178654 23.55838,-4.416189 1.35686,0.447802 3.02574,1.598848 3.70863,2.557878 1.16691,1.638776 1.24162,2.981546 1.24162,22.316677 0,22.380864 -0.13588,23.331061 -3.55941,24.890931 -0.95447,0.43488 -8.53607,2.50625 -16.848,4.60302 -8.31192,2.09678 -15.74866,4.08943 -16.52608,4.4281 -1.41349,0.61577 -1.41349,0.61577 -1.6,27.36157 L 171.84,164.8 l -2.4876,4.65584 c -6.9851,13.07346 -23.74777,19.94449 -40.0724,16.42571 z m 16.89268,-16.11212 c 11.38353,-4.44556 13.26114,-16.15261 3.62519,-22.60325 -3.92048,-2.6245 -7.12494,-3.34834 -13.47787,-3.04443 -4.49744,0.21514 -6.03304,0.58334 -8.86272,2.12509 -8.06746,4.39554 -9.96907,13.00089 -4.20917,19.04773 5.48332,5.75648 14.92401,7.59929 22.92457,4.47486 z M 184.5573,91.544659 c 4.53052,-1.124288 8.63452,-2.196585 9.12,-2.382882 0.69698,-0.267455 0.8827,-2.396459 0.8827,-10.118793 v -9.780071 l -8.8,2.202311 c -4.84,1.21127 -9.88,2.486215 -11.2,2.833211 l -2.4,0.630901 v 9.827933 9.827933 l 2.08,-0.498192 c 1.144,-0.274005 5.78679,-1.418063 10.3173,-2.542351 z M 49.851692,173.77774 c -2.455049,-1.35758 -3.774343,-3.7755 -3.751338,-6.87522 0.0222,-2.99164 0.928424,-4.57258 3.649647,-6.36695 1.597385,-1.05331 3.380261,-1.16755 18.281781,-1.17135 17.893065,-0.005 18.804372,0.14748 21.511709,3.5893 2.081308,2.64596 1.777257,5.92314 -0.829421,8.93985 L 86.54814,174.4 69.03407,174.55013 c -14.26399,0.12228 -17.823657,-0.0211 -19.182378,-0.77239 z m -0.08365,-48.05959 c -3.418729,-1.85498 -4.664699,-6.77307 -2.685538,-10.60035 1.864681,-3.60589 3.020944,-3.7579 28.576937,-3.75681 20.828345,9e-4 23.450406,0.11628 25.451659,1.12 5.24139,2.62882 5.20888,10.58999 -0.0544,13.31172 -2.683687,1.38779 -48.716927,1.32087 -51.288698,-0.0746 z m 0,-47.999999 c -3.434207,-1.86338 -4.812736,-7.56669 -2.633005,-10.89338 2.331365,-3.558113 1.047822,-3.464971 47.713178,-3.462379 48.621505,0.0027 45.750205,-0.29685 48.149215,5.023201 1.16929,2.593032 1.16929,2.715782 0,5.308814 -2.40052,5.323395 0.49358,5.023804 -48.277433,4.997577 -36.966259,-0.01988 -43.452806,-0.160403 -44.951955,-0.973833 z"
       id="path1" /></g></svg>
