<?xml version="1.0" encoding="UTF-8" standalone="no"?>
<!-- Created with Inkscape (http://www.inkscape.org/) -->

<svg
   width="240mm"
   height="240mm"
   viewBox="0 0 240 240"
   version="1.1"
   id="svg1"
   xml:space="preserve"
   xmlns:xlink="http://www.w3.org/1999/xlink"
   xmlns="http://www.w3.org/2000/svg"
   xmlns:svg="http://www.w3.org/2000/svg"><defs
     id="defs1" /><g
     id="layer1"><path
       style="fill:#000000"
       d="m 135.16129,191.95561 c -7.02483,-1.49026 -10.78136,-3.31246 -16.2219,-7.86882 -3.86149,-3.23393 -7.33165,-8.23755 -8.84257,-12.75011 -1.47752,-4.41279 -1.40806,-12.67318 0.14222,-16.91458 5.22438,-14.29328 22.41842,-23.39282 38.83801,-20.55407 2.99149,0.51719 5.95114,1.01975 6.57699,1.1168 1.07611,0.16688 1.13688,-1.83229 1.11889,-36.811603 -0.0135,-26.170692 0.19908,-37.716045 0.72676,-39.477263 0.8406,-2.805671 3.80148,-5.880347 6.69386,-6.951109 1.06451,-0.394086 10.88118,-2.936454 21.81482,-5.649706 13.83532,-3.433326 20.50447,-4.815026 21.93548,-4.544548 2.97166,0.561679 6.06879,2.637684 7.54351,5.056405 1.19627,1.962041 1.28146,3.267707 1.27381,19.522026 -0.008,16.835436 -0.0565,17.50395 -1.4492,19.942961 -0.79255,1.387984 -2.45713,3.047169 -3.69907,3.687079 -1.79274,0.923714 -15.3816,4.578596 -31.75335,8.54043 l -1.75336,0.424298 -0.18212,35.6381 c -0.18123,35.4602 -0.18941,35.65373 -1.63963,38.76982 -6.74818,14.49984 -24.0891,22.43755 -41.12315,18.82389 z M 55.639264,176.77768 c -6.057115,-3.69307 -6.344026,-13.79742 -0.494428,-17.41267 1.961419,-1.21223 3.188632,-1.30049 18.08097,-1.30049 14.949247,0 16.11353,0.0845 18.103881,1.31465 2.393806,1.47945 4.804734,5.87351 4.788732,8.72775 -0.01467,2.61738 -2.480655,6.72535 -5.09462,8.48691 -2.121916,1.42995 -2.61302,1.47062 -17.732111,1.46827 -14.378195,-0.002 -15.708173,-0.099 -17.652424,-1.28442 z m 1.140137,-47.88405 c -4.095536,-2.08348 -5.811659,-4.92173 -5.811659,-9.61175 0,-3.31059 0.246039,-4.03333 2.086695,-6.12972 3.562743,-4.05774 3.972373,-4.1199 27.151149,-4.1199 13.908495,0 21.625264,0.24553 23.085234,0.73453 4.3455,1.45546 7.03176,5.13041 7.03176,9.6198 0,3.74696 -1.68316,6.88078 -4.77688,8.89391 L 102.90323,130 81.290323,130.18396 c -21.413793,0.18226 -21.639602,0.17037 -24.510922,-1.29033 z m -0.02459,-48.409759 c -4.008526,-2.025045 -5.787072,-4.917129 -5.787072,-9.410325 0,-4.451106 1.76103,-7.30479 5.63813,-9.136381 2.641322,-1.247794 4.043141,-1.291519 40.967742,-1.277835 35.878719,0.0133 38.395529,0.08806 40.875079,1.214142 2.93508,1.332971 5.07898,4.278141 5.7501,7.899184 0.49755,2.684549 -1.17611,7.170657 -3.41726,9.159654 -3.23981,2.875312 -4.2641,2.945024 -43.709346,2.974856 -37.443942,0.02832 -37.443942,0.02832 -40.317373,-1.423295 z"
       id="path1" /></g></svg>
