<?xml version="1.0" encoding="UTF-8" standalone="no"?>
<!-- Generator: Adobe Illustrator 28.0.0, SVG Export Plug-In . SVG Version: 6.00 Build 0)  -->

<svg
   version="1.0"
   id="katman_1"
   x="0px"
   y="0px"
   viewBox="0 0 240 239.99999"
   xml:space="preserve"
   sodipodi:docname="Pause.svg"
   width="240"
   height="240"
   inkscape:version="1.4.2 (f4327f4, 2025-05-13)"
   xmlns:inkscape="http://www.inkscape.org/namespaces/inkscape"
   xmlns:sodipodi="http://sodipodi.sourceforge.net/DTD/sodipodi-0.dtd"
   xmlns="http://www.w3.org/2000/svg"
   xmlns:svg="http://www.w3.org/2000/svg"><defs
   id="defs2" /><sodipodi:namedview
   id="namedview2"
   pagecolor="#ffffff"
   bordercolor="#000000"
   borderopacity="0.25"
   inkscape:showpageshadow="2"
   inkscape:pageopacity="0.0"
   inkscape:pagecheckerboard="0"
   inkscape:deskcolor="#d1d1d1"
   inkscape:zoom="0.49236619"
   inkscape:cx="204.11637"
   inkscape:cy="445.8064"
   inkscape:window-width="1920"
   inkscape:window-height="1009"
   inkscape:window-x="-8"
   inkscape:window-y="-8"
   inkscape:window-maximized="1"
   inkscape:current-layer="katman_1" />
<style
   type="text/css"
   id="style1">
	.st0{fill:#4E3D80;}
</style>
<path
   class="st0"
   d="m 177.4263,43.4307 h -31.9032 c -3.3858,0 -6.6312,1.3446 -9.0234,3.7368 -2.3922,2.3922 -3.7368,5.6376 -3.7368,9.0234 v 127.6182 c 0,3.3858 1.3446,6.6312 3.7368,9.0234 2.3922,2.3922 5.6376,3.7368 9.0234,3.7368 h 31.9032 c 3.3858,0 6.6312,-1.3446 9.0234,-3.7368 2.3922,-2.3922 3.7368,-5.6376 3.7368,-9.0234 V 56.1963 c 0,-3.3858 -1.3446,-6.6312 -3.7368,-9.0234 -2.3922,-2.3976 -5.6376,-3.7422 -9.0234,-3.7422 z m 0,140.3838 H 145.5231 V 56.1963 h 31.9032 z M 94.4769,43.4307 H 62.5737 c -3.3858,0 -6.6312,1.3446 -9.0234,3.7368 -2.3922,2.3922 -3.7368,5.6376 -3.7368,9.0234 v 127.6182 c 0,3.3858 1.3446,6.6312 3.7368,9.0234 2.3922,2.3922 5.6376,3.7368 9.0234,3.7368 h 31.9032 c 3.3858,0 6.6312,-1.3446 9.0234,-3.7368 2.3922,-2.3922 3.7368,-5.6376 3.7368,-9.0234 V 56.1963 c 0,-3.3858 -1.3446,-6.6312 -3.7368,-9.0234 -2.3922,-2.3976 -5.6376,-3.7422 -9.0234,-3.7422 z m 0,140.3838 H 62.5737 V 56.1963 h 31.9032 z"
   id="path1"
   style="stroke-width:0.54" />

</svg>
