<?xml version="1.0" encoding="UTF-8" standalone="no"?>
<svg
   viewBox="0 0 640 640"
   version="1.1"
   id="svg1"
   xml:space="preserve"
   width="640"
   height="640"
   xmlns="http://www.w3.org/2000/svg"
   xmlns:svg="http://www.w3.org/2000/svg"><defs
     id="defs1" /><g
     id="layer1"
     style="fill:#000000;fill-opacity:1"><path
       id="path1-8"
       style="display:inline;stroke-width:0.8"
       d="m 205.75977,107.06836 c -28.24,0 -51.20118,22.95922 -51.20118,51.19922 v 230.40039 c 0,28.24 22.96118,51.19922 51.20118,51.19922 h 307.19921 c 28.24,0 51.19922,-22.95922 51.19922,-51.19922 v -192 c 0,-28.24 -22.95922,-51.20117 -51.19922,-51.20117 H 393.51953 c -5.52,0 -10.96133,-1.75914 -15.36133,-5.11914 l -30.71875,-23.04102 c -8.88,-6.64 -19.6807,-10.23828 -30.7207,-10.23828 z m 148.20898,73.9707 c 10.2647,0 18.5293,8.26265 18.5293,18.52735 v 66.39257 h 66.39257 c 10.2647,0 18.52735,8.2646 18.52735,18.5293 0,10.2647 -8.26264,18.5293 -18.52735,18.5293 h -66.39257 v 66.39258 c 0,10.2647 -8.2646,18.52734 -18.5293,18.52734 -10.2647,0 -18.5293,-8.26264 -18.5293,-18.52734 v -66.39258 h -66.39257 c -10.26471,0 -18.52735,-8.2646 -18.52735,-18.5293 0,-10.2647 8.26264,-18.5293 18.52735,-18.5293 h 66.39257 v -66.39257 c 0,-10.2647 8.2646,-18.52735 18.5293,-18.52735 z" /><path
       style="fill:#000000;fill-opacity:1;stroke-width:18.8976;stroke-linecap:square;stroke-miterlimit:0"
       d="m 66.031363,207.27985 v 300 c 0,0 1.05372,11.61016 6.55788,17.67981 5.66344,6.24533 18.442123,7.32019 18.442123,7.32019 H 466.031 c 0,0 20.06611,-0.23495 20,-20 -0.0677,-20.25281 -20,-20 -20,-20 H 106.03137 v -285 c 0,0 -0.34316,-20.10134 -20.000007,-20 -19.85096,0.10234 -20,20 -20,20 z"
       id="path2" /></g></svg>
