<?xml version="1.0" encoding="UTF-8" standalone="no"?>
<svg
   viewBox="0 0 640 640"
   version="1.1"
   id="svg1"
   xml:space="preserve"
   width="640"
   height="640"
   xmlns="http://www.w3.org/2000/svg"
   xmlns:svg="http://www.w3.org/2000/svg"><defs
     id="defs1" /><g
     id="layer1"
     style="fill:#000000;fill-opacity:1"><path
       style="fill:#000000;fill-opacity:1;stroke-width:18.8976;stroke-linecap:square;stroke-miterlimit:0"
       d="m 66.031363,207.27985 v 300 c 0,0 1.05372,11.61016 6.55788,17.67981 5.66344,6.24533 18.442123,7.32019 18.442123,7.32019 H 466.031 c 0,0 20.06611,-0.23495 20,-20 -0.0677,-20.25281 -20,-20 -20,-20 H 106.03137 v -285 c 0,0 -0.34316,-20.10134 -20.000007,-20 -19.85096,0.10234 -20,20 -20,20 z"
       id="path2" /><path
       d="m 205.9199,401.00362 h 307.2 c 7.04,0 12.8,-5.76 12.8,-12.8 v -192 c 0,-7.04 -5.76,-12.8 -12.8,-12.8 h -119.44 c -13.84,0 -27.36,-4.48 -38.4,-12.8 l -30.72,-23.04 c -2.24,-1.68 -4.88,-2.56 -7.68,-2.56 h -110.96 c -7.04,0 -12.8,5.76 -12.8,12.8 v 230.4 c 0,7.04 5.76,12.8 12.8,12.8 z m 307.2,38.4 h -307.2 c -28.24,0 -51.2,-22.96 -51.2,-51.2 v -230.4 c 0,-28.24 22.96,-51.2 51.2,-51.2 h 110.96 c 11.04,0 21.84,3.6 30.72,10.24 l 30.72,23.04 c 4.4,3.36 9.84,5.12 15.36,5.12 h 119.44 c 28.24,0 51.2,22.96 51.2,51.2 v 192 c 0,28.24 -22.96,51.2 -51.2,51.2 z"
       id="path1-1"
       style="display:inline;stroke-width:0.8" /><path
       id="rect2"
       style="display:inline;fill:#000000;fill-opacity:1;stroke-width:18.8976;stroke-linecap:square;stroke-miterlimit:0"
       d="m 353.96864,181.03811 c -10.2647,0 -18.5293,8.26264 -18.5293,18.52734 v 66.39258 h -66.39258 c -10.2647,0 -18.52734,8.2646 -18.52734,18.5293 0,10.2647 8.26264,18.5293 18.52734,18.5293 h 66.39258 v 66.39258 c 0,10.2647 8.2646,18.52734 18.5293,18.52734 10.2647,0 18.5293,-8.26264 18.5293,-18.52734 v -66.39258 h 66.39258 c 10.2647,0 18.52734,-8.2646 18.52734,-18.5293 0,-10.2647 -8.26264,-18.5293 -18.52734,-18.5293 h -66.39258 v -66.39258 c 0,-10.2647 -8.2646,-18.52734 -18.5293,-18.52734 z" /></g></svg>
