<?xml version="1.0" encoding="UTF-8" standalone="no"?>
<!-- Created with Inkscape (http://www.inkscape.org/) -->

<svg
   width="240mm"
   height="240mm"
   viewBox="0 0 240 240"
   version="1.1"
   id="svg1"
   xml:space="preserve"
   sodipodi:docname="icon.svg"
   inkscape:version="1.4.2 (f4327f4, 2025-05-13)"
   inkscape:export-filename="icon.png"
   inkscape:export-xdpi="96"
   inkscape:export-ydpi="96"
   xmlns:inkscape="http://www.inkscape.org/namespaces/inkscape"
   xmlns:sodipodi="http://sodipodi.sourceforge.net/DTD/sodipodi-0.dtd"
   xmlns:xlink="http://www.w3.org/1999/xlink"
   xmlns="http://www.w3.org/2000/svg"
   xmlns:svg="http://www.w3.org/2000/svg"><sodipodi:namedview
     id="namedview1"
     pagecolor="#ffffff"
     bordercolor="#000000"
     borderopacity="0.25"
     inkscape:showpageshadow="2"
     inkscape:pageopacity="0.0"
     inkscape:pagecheckerboard="true"
     inkscape:deskcolor="#d1d1d1"
     inkscape:document-units="mm"
     inkscape:antialias-rendering="false"
     inkscape:zoom="0.32311772"
     inkscape:cx="171.76402"
     inkscape:cy="827.87165"
     inkscape:window-width="1920"
     inkscape:window-height="1009"
     inkscape:window-x="-8"
     inkscape:window-y="-8"
     inkscape:window-maximized="1"
     inkscape:current-layer="layer1"><inkscape:page
       x="0"
       y="0"
       width="240"
       height="240"
       id="page2"
       margin="0"
       bleed="0" /></sodipodi:namedview><defs
     id="defs1"><linearGradient
       id="linearGradient4"
       inkscape:collect="always"><stop
         style="stop-color:#5981ff;stop-opacity:1;"
         offset="0"
         id="stop5" /><stop
         style="stop-color:#48e9ff;stop-opacity:1;"
         offset="1"
         id="stop6" /></linearGradient><linearGradient
       inkscape:collect="always"
       xlink:href="#linearGradient4"
       id="linearGradient6"
       x1="204.85281"
       y1="204.85283"
       x2="35.147179"
       y2="35.147194"
       gradientUnits="userSpaceOnUse" /></defs><g
     inkscape:label="Layer 1"
     inkscape:groupmode="layer"
     id="layer1"><rect
       style="fill:url(#linearGradient6);stroke-width:6.55972;stroke-linecap:square;stroke-miterlimit:0;fill-opacity:1"
       id="rect1"
       width="240"
       height="240"
       x="-6.9936118e-07"
       y="-6.9936118e-07"
       ry="6.621387" /><path
       style="display:inline;fill:#ffffff;fill-opacity:1;stroke-width:0.7"
       d="M -62.961149,120.00001 V 23.043438 216.95657 Z m 117.36896,52.57602 c 0.301627,-1.62045 1.453973,-4.74445 2.253015,-6.10791 0.598229,-1.0208 0.828097,-1.20447 1.322539,-1.05672 1.706075,0.50978 2.669771,0.48318 3.889719,-0.10738 2.73842,-1.32565 6.011757,-7.2748 7.959925,-14.46682 0.475979,-1.75717 1.032253,-3.45107 1.236166,-3.76423 0.203914,-0.31316 1.228147,-0.90966 2.276075,-1.32556 3.487653,-1.38417 6.044262,-3.80362 7.053493,-6.67506 0.297494,-0.84642 0.734585,-3.29494 0.971317,-5.44115 0.812157,-7.36304 2.357431,-11.36752 5.759302,-14.92489 0.622574,-0.65102 1.019392,-1.29219 0.909644,-1.46978 -0.352264,-0.56996 -2.297291,-1.65097 -4.006709,-2.22683 -2.232895,-0.7522 -5.347145,-0.74979 -8.092777,0.006 -1.142905,0.31472 -4.765845,1.87042 -8.050979,3.45708 -7.019734,3.39043 -9.2859,4.07514 -13.47196,4.07043 -2.446388,-0.003 -4.217415,-0.22896 -6.113821,-0.78088 -1.164677,-0.33898 1.095473,1.59694 2.903667,2.48711 1.610477,0.79284 2.102625,0.89514 4.725456,0.98221 3.564526,0.11834 5.798747,-0.34807 9.11765,-1.90335 1.298163,-0.60835 2.428887,-1.10607 2.512723,-1.10607 0.416343,0 -1.711254,1.86833 -3.472053,3.04896 -2.16995,1.45497 -5.596646,2.73788 -7.92731,2.96789 -3.261129,0.32184 -7.920294,-1.35148 -10.321957,-3.70706 -2.568205,-2.51895 -4.790667,-6.32701 -5.604136,-9.60238 -0.241396,-0.97196 -0.0116,-0.96194 1.140612,0.0497 1.38439,1.21551 4.484624,2.94837 6.516556,3.64239 3.243681,1.1079 8.19952,1.03139 11.8978,-0.18367 0.709702,-0.23317 4.103219,-1.78149 7.541148,-3.44071 3.43793,-1.65921 7.063384,-3.22772 8.056562,-3.48557 2.479601,-0.64375 6.61653,-0.65098 8.73923,-0.0152 2.082678,0.62373 3.866041,1.52323 5.514224,2.78132 l 1.286404,0.98193 2.300774,-1.09549 c 3.216836,-1.53167 5.125589,-1.98698 8.96827,-2.13929 2.6376,-0.10454 4.39011,0.0181 8.39235,0.58755 10.01507,1.42483 15.51944,0.80677 21.59329,-2.42465 2.38581,-1.26931 5.80146,-4.65092 9.09199,-9.00138 3.4868,-4.609963 6.55027,-7.891966 9.56058,-10.242584 4.06656,-3.175406 10.37138,-5.700373 15.30838,-6.130733 1.9092,-0.166428 2.05391,-0.230633 3.38832,-1.503393 0.76668,-0.731248 1.93196,-1.642881 2.58952,-2.025853 1.21588,-0.708134 5.38023,-2.058902 5.61713,-1.821998 0.0715,0.07145 -0.30933,1.89728 -0.84619,4.057396 l -0.97611,3.92748 5.89638,8.844964 c 3.24301,4.864731 6.06967,9.258761 6.28146,9.764531 0.7444,1.77758 -0.59784,5.89015 -2.16833,6.64375 -0.38993,0.18711 -1.60142,0.49324 -2.69218,0.68028 -2.61394,0.44825 -3.51983,0.0532 -4.70879,-2.05355 -1.35501,-2.40097 -3.64779,-3.84391 -7.18241,-4.52018 -1.16578,-0.22306 -2.65684,-0.7204 -3.31346,-1.10521 -3.53129,-2.06947 -4.99835,-6.407205 -3.3117,-9.79187 1.01765,-2.042146 1.37159,-2.031714 1.40091,0.04128 0.047,3.321752 2.13616,6.41329 4.88575,7.22984 0.79289,0.23547 1.71468,0.42812 2.0484,0.42812 0.8918,0 4.25269,1.75799 5.65399,2.95745 0.66868,0.57236 1.63998,1.70379 2.15844,2.51426 0.79887,1.24884 1.07124,1.47361 1.78581,1.47361 0.46374,0 1.09556,-0.13509 1.40404,-0.30018 0.54589,-0.29216 1.34729,-1.80948 1.34729,-2.55092 0,-0.20274 -2.8644,-4.59179 -6.36532,-9.753448 l -6.36531,-9.384827 0.65954,-2.397236 c 0.36275,-1.318479 0.61252,-2.444258 0.55505,-2.501734 -0.24662,-0.246614 -1.3143,0.602458 -2.69609,2.144065 l -1.48429,1.655958 -2.5003,0.317755 c -4.2732,0.543066 -9.41027,2.546372 -12.91828,5.037749 -2.78595,1.978562 -6.13749,5.585042 -10.15401,10.926398 -8.38922,11.15636 -12.44835,14.41374 -23.40272,18.78028 -9.46457,3.77269 -11.66805,5.39641 -16.92735,12.47364 -1.53291,2.06276 -3.604,4.63349 -4.602455,5.71273 -3.358733,3.63054 -7.860013,6.24208 -15.050334,8.73189 -4.975421,1.72284 -5.876553,2.16036 -8.13315,3.94884 -1.87508,1.4861 -3.728274,4.06626 -6.044374,8.41544 -1.793729,3.36827 -3.405392,5.60027 -5.282669,7.31599 -2.650445,2.42236 -6.970456,4.49104 -9.37861,4.49104 h -1.098675 z m 28.667432,-26.76807 c 8.957398,-3.08125 11.885848,-5.2278 17.584847,-12.88967 5.97931,-8.03872 8.26906,-9.70236 18.93596,-13.75809 1.92886,-0.73339 3.99162,-1.59365 4.5839,-1.91169 l 1.07687,-0.57826 -1.52796,0.20636 c -2.79605,0.37763 -8.36625,0.1698 -12.91829,-0.48197 -4.94601,-0.7082 -9.7848,-0.82754 -12.092033,-0.29822 -0.83643,0.19188 -2.583413,0.85426 -3.882186,1.47194 -4.088812,1.94458 -7.426509,5.95849 -8.721295,10.48821 -0.240218,0.84039 -0.634459,3.33708 -0.876092,5.54821 -0.484628,4.43473 -1.088301,6.58507 -2.504988,8.92302 -0.934806,1.54272 -3.444332,4.14221 -3.998845,4.14221 -0.159344,0 -0.289715,0.12501 -0.289715,0.27781 0,0.42991 0.233603,0.3724 4.629827,-1.13986 z m -12.783809,22.04526 c 0.84988,-1.18418 1.800005,-2.65312 2.111392,-3.2643 0.311387,-0.61119 1.394673,-1.92386 2.407304,-2.91704 1.316479,-1.29119 2.144641,-2.42219 2.906158,-3.96886 1.272779,-2.58506 1.683516,-2.84236 7.930832,-4.96805 2.227337,-0.75788 5.208464,-1.92566 6.624725,-2.59508 2.755998,-1.30266 6.533772,-3.88627 8.120755,-5.55376 1.1821,-1.24207 2.9752,-2.18646 4.94486,-2.60438 1.74199,-0.36961 5.33421,-0.4166 5.33421,-0.0699 0,0.13343 -1.32596,1.51973 -2.94658,3.08066 -6.18429,5.95654 -10.683445,7.91231 -20.187002,8.77516 -2.492692,0.22633 -2.968211,0.65658 -6.213262,5.62177 -3.910658,5.98362 -6.29718,8.2453 -10.427729,9.88228 -1.019241,0.40392 -1.920154,0.73441 -2.00203,0.73441 -0.08187,0 0.546489,-0.96887 1.396367,-2.15304 z m 80.475116,-13.335 c 0.0894,-0.573 0.76211,-2.22817 1.49487,-3.67817 1.61681,-3.1994 2.06889,-3.46764 4.25736,-2.5262 2.62536,1.1294 3.62072,0.45041 7.10495,-4.84671 3.11317,-4.733 3.3405,-5.24062 2.75032,-6.14134 -0.76209,-1.1631 -2.51828,-0.78796 -9.04493,1.93209 -4.00122,1.66755 -6.58259,2.21225 -9.82154,2.07245 -2.26361,-0.0977 -3.11265,-0.26154 -4.40638,-0.85029 -2.12891,-0.96883 -4.30402,-3.18226 -5.4852,-5.58184 -0.79804,-1.62121 -0.95747,-2.27669 -1.05624,-4.34232 -0.1868,-3.90723 0.12454,-3.92788 2.19807,-0.14574 0.97827,1.78439 2.33055,3.80585 3.00505,4.49212 2.77116,2.81953 6.02104,3.48837 10.85848,2.2347 2.62817,-0.68112 7.67919,-2.53379 8.18158,-3.00093 0.15334,-0.14258 -2.20377,-0.24541 -5.6257,-0.24541 -3.2393,0 -5.88963,-0.0839 -5.88963,-0.18656 0,-0.10261 0.3235,-0.99518 0.71889,-1.98351 1.56046,-3.90054 1.0524,-8.03875 -1.31748,-10.73108 -2.00176,-2.27412 -5.43045,-3.7676 -8.64954,-3.7676 -1.90513,0 -1.85055,-0.25621 0.19926,-0.93541 1.74704,-0.57888 4.906,-0.58147 6.8454,-0.006 3.42272,1.0163 6.15617,3.79526 7.07616,7.19398 0.3758,1.3883 0.45142,2.40623 0.32999,4.44156 l -0.15752,2.64047 h 7.96917 c 7.22256,0 8.05987,0.0482 8.93719,0.51441 1.47095,0.78166 2.21816,2.06679 2.21816,3.81499 0,1.31618 -0.15341,1.69508 -1.47379,3.63994 -3.7549,5.53076 -8.20447,11.6826 -9.12586,12.61711 -1.94534,1.97304 -8.11462,4.41668 -11.15051,4.41668 h -1.10316 z m -22.49262,-11.57245 c -2.27979,-0.43636 -2.28582,-0.43814 -9.68461,-2.87127 -5.36695,-1.76495 -5.6777,-1.83279 -9.12143,-1.99139 l -3.56518,-0.16419 1.33099,-1.73633 1.33099,-1.73633 1.81748,0.001 c 2.29244,0.003 5.04949,0.66328 11.46135,2.74711 5.77963,1.87838 8.68818,2.39703 12.17516,2.17112 l 2.42422,-0.15706 0.79665,0.84907 c 0.43816,0.46698 1.2689,1.1969 1.84609,1.62205 l 1.04944,0.77301 -1.46615,0.32024 c -2.33473,0.50994 -8.1286,0.60582 -10.395,0.17202 z m -71.226252,-10.1672 c -1.609066,-0.1996 -4.344945,-1.0116 -4.555319,-1.35199 -0.06766,-0.10948 0.668787,-0.14864 1.636561,-0.0871 1.939735,0.12351 5.531878,-0.50431 7.640164,-1.33531 2.436256,-0.96029 4.548477,-2.56541 8.758676,-6.65592 3.201604,-3.11059 4.59324,-4.26259 6.005913,-4.97171 2.118806,-1.06358 4.579252,-1.41771 6.179891,-0.88946 1.140936,0.37655 1.100438,0.84597 -0.07298,0.84597 -0.424969,0 -1.573985,0.39274 -2.55337,0.87274 -1.41481,0.69342 -2.579876,1.67972 -5.670076,4.80008 -4.642715,4.68802 -5.738817,5.60017 -8.473282,7.0513 -2.881944,1.52939 -5.835907,2.10095 -8.896175,1.72132 z m 100.785672,-7.97152 c -0.0961,-1.842 -0.33851,-3.23743 -0.74884,-4.31151 -0.56968,-1.49119 -0.58887,-1.7793 -0.31449,-4.72281 0.47589,-5.1054 1.53617,-8.29017 3.7616,-11.29886 l 1.31249,-1.77442 0.54343,1.2138 c 0.29889,0.66759 0.72891,1.41875 0.95561,1.66924 0.36792,0.40656 0.32319,0.60095 -0.41665,1.81078 -1.688,2.76029 -2.03833,4.41255 -2.29017,10.80096 -0.12651,3.20874 -0.38767,6.58415 -0.58037,7.50094 -0.33088,1.57408 -0.39854,1.67155 -1.21541,1.75111 l -0.86505,0.0843 z M 52.761651,111.71045 c 0.145156,-0.12813 1.136812,-0.38662 2.20368,-0.5744 2.792838,-0.49158 4.806674,-1.23106 8.60143,-3.15844 9.350578,-4.74922 12.400693,-5.97516 16.75546,-6.73456 4.016336,-0.7004 10.655058,-0.41403 11.22511,0.48419 0.123522,0.19462 0.226492,0.8936 0.22883,1.55329 0.0035,1.01226 -0.07161,1.17724 -0.481915,1.05728 -2.814103,-0.82274 -8.080926,-0.95226 -11.876486,-0.29206 -3.261199,0.56724 -5.224263,1.24386 -12.010162,4.13958 -6.290525,2.68433 -9.989294,3.75812 -12.945241,3.75812 -1.082356,0 -1.846106,-0.10464 -1.700706,-0.233 z m 67.768529,-3.76448 c -1.07169,-0.20484 -2.72185,-0.68479 -3.66701,-1.06656 -1.69199,-0.68343 -4.64083,-2.4133 -4.44598,-2.60816 0.0549,-0.0549 1.34104,0.22134 2.85814,0.61381 2.31869,0.59982 3.37834,0.71399 6.64774,0.71624 4.60428,0.004 6.63205,-0.44194 11.44149,-2.51144 3.01086,-1.29557 3.10451,-1.31734 2.59624,-0.60355 -0.70804,0.99435 -2.74193,2.84942 -4.06876,3.71101 -2.59366,1.68425 -7.63743,2.4605 -11.36186,1.74865 z m -22.178058,-1.11291 c -3.852289,-1.43721 -4.363086,-5.86972 -1.023428,-8.880997 2.126481,-1.917384 5.259206,-2.816723 7.579776,-2.175982 l 1.04038,0.287263 V 83.445268 70.827192 h 1.35133 1.35131 l 0.4928,1.319609 c 0.3812,1.020788 1.26529,2.08208 3.90415,4.686708 4.02981,3.977545 4.86994,5.356871 5.05604,8.301028 0.0966,1.527831 -0.004,2.2822 -0.4715,3.519224 -0.57381,1.519951 -2.56816,4.147526 -2.90181,3.823173 -0.0897,-0.08719 0.0854,-0.865422 0.38902,-1.729387 1.44235,-4.103753 0.0277,-7.38115 -4.14626,-9.605848 -0.89661,-0.477886 -1.70077,-0.868882 -1.78703,-0.868882 -0.0863,0 -0.19376,4.656834 -0.23891,10.348517 l -0.0821,10.348516 -0.78165,1.59175 c -1.29897,2.64526 -3.80492,4.29356 -6.89097,4.53261 -1.17006,0.0906 -2.136254,10e-4 -2.84114,-0.26115 z m -35.880091,-4.05877 c 0.277627,-0.44922 3.114233,-2.28439 6.111042,-3.953621 7.203609,-4.012422 14.246463,-5.666562 21.147667,-4.966904 1.762425,0.178677 3.832808,0.459635 4.600848,0.624352 l 1.396444,0.299484 -1.146019,1.167706 -1.146012,1.167705 -2.008496,-0.352507 c -1.10467,-0.193879 -3.739076,-0.357469 -5.854231,-0.363534 -6.234092,-0.01788 -10.723976,1.102436 -18.461069,4.606389 -2.489743,1.12755 -4.591133,2.05009 -4.669756,2.05009 -0.07862,0 -0.06531,-0.12563 0.02958,-0.27916 z m 57.047739,-1.82223 c -2.19017,-0.39636 -6.39213,-1.804012 -7.07374,-2.369695 -0.22393,-0.185846 -0.38529,-0.842667 -0.38529,-1.568309 0,-1.062807 0.0724,-1.225529 0.48616,-1.093851 0.2674,0.08508 1.54881,0.5224 2.84759,0.971824 3.49566,1.209627 5.82565,1.540426 9.62507,1.366504 4.2795,-0.195898 6.68311,-0.905812 13.9072,-4.107544 3.08736,-1.368322 5.69956,-2.487859 5.80491,-2.487859 0.10534,0 -0.42317,0.656333 -1.17447,1.458516 -0.75131,0.802183 -1.63298,1.804457 -1.95927,2.227272 -0.74626,0.967014 -5.36367,3.195219 -9.2794,4.477916 -4.73991,1.552676 -8.57408,1.889766 -12.79876,1.125226 z m 5.92494,-7.363689 c -1.4369,-0.28277 -3.80866,-1.345439 -4.7717,-2.137957 l -0.69443,-0.571482 1.25006,0.241094 c 1.99581,0.384924 6.45608,0.302104 8.65634,-0.160732 1.11387,-0.234314 3.96616,-1.250109 6.33839,-2.257322 9.83261,-4.174777 12.47173,-4.894642 17.39825,-4.745666 2.1698,0.06562 2.83117,0.160627 2.33349,0.335225 -0.38199,0.134012 -1.75716,0.767085 -3.05594,1.406829 -1.47652,0.727297 -3.38171,1.382172 -5.08419,1.747598 -1.93752,0.415876 -4.14088,1.217581 -7.63985,2.779811 -2.70438,1.207461 -5.54213,2.393443 -6.30611,2.635516 -3.05961,0.969448 -5.93269,1.217419 -8.42431,0.727086 z M 71.777916,91.889523 c 1.189527,-1.00803 6.12852,-3.207221 8.872461,-3.950652 6.201061,-1.680086 11.53863,-1.597614 17.712175,0.273672 4.347528,1.317796 4.252548,1.25354 4.252548,2.876874 v 1.351426 l -3.12538,-1.070866 c -1.718969,-0.588976 -4.395188,-1.326531 -5.947165,-1.639012 -6.222742,-1.252915 -14.134216,-0.443314 -20.350272,2.082496 -2.04062,0.829178 -2.320868,0.84425 -1.414367,0.07606 z M 129.6088,85.576897 c -1.33306,-0.460379 -3.93526,-2.525996 -3.93526,-3.1238 0,-0.112392 0.59384,0.06071 1.31961,0.384667 1.65031,0.73662 5.33459,0.981233 7.53486,0.500265 0.85993,-0.187977 3.80469,-1.27787 6.54391,-2.421985 6.8514,-2.861677 8.27544,-3.214393 13.0774,-3.239146 2.8291,-0.01458 4.38165,0.109148 5.69517,0.453875 2.19476,0.576015 7.65381,3.21357 7.32235,3.537821 -0.13097,0.128131 -1.42579,0.263288 -2.87735,0.300351 -2.2099,0.05643 -2.91038,-0.03818 -4.3061,-0.581569 -1.33958,-0.521532 -2.34874,-0.671315 -5.13953,-0.762823 -3.03627,-0.09956 -3.81202,-0.02635 -6.17319,0.582571 -1.48531,0.383041 -3.7981,1.157508 -5.13954,1.721038 -1.34145,0.563528 -3.81416,1.508501 -5.49493,2.099938 -3.56253,1.253605 -5.93855,1.408333 -8.4274,0.548797 z"
       id="path9"
       sodipodi:nodetypes="ccccsssssssssssssscsssssssssssssscscsscsssssssscssssssssssssssssscssscssssssssssscssssscssssssssssssssssssssssssssssssssssssssssssssssssscscsssscscssccccsscsscsccsssssssssssssssscsssssscsssssscsssssssssssssscsscccccssscssssscsscsssscccssssssssssssssssssscsssssssssssssscsssssssssssssssssss" /></g></svg>
