<?xml version="1.0" encoding="UTF-8" standalone="no"?>
<!-- Created with Inkscape (http://www.inkscape.org/) -->

<svg
   width="240mm"
   height="240mm"
   viewBox="0 0 240 240"
   version="1.1"
   id="svg1"
   xml:space="preserve"
   xmlns="http://www.w3.org/2000/svg"
   xmlns:svg="http://www.w3.org/2000/svg"><defs
     id="defs1" /><g
     id="layer1"><path
       style="display:inline;fill:#ffffff;fill-opacity:1;stroke-width:0.936"
       d="M -112.68733,122.45655 V -7.1882415 252.10133 Z M 44.251732,192.7582 c 0.403318,-2.16676 1.944168,-6.34401 3.012602,-8.16715 0.799918,-1.36496 1.107285,-1.61055 1.768423,-1.41298 2.281266,0.68165 3.569865,0.64609 5.201112,-0.14359 3.661657,-1.77258 8.038579,-9.72745 10.643556,-19.3442 0.636452,-2.34958 1.38027,-4.61457 1.652931,-5.0333 0.27266,-0.41875 1.642207,-1.21636 3.043436,-1.77248 4.663492,-1.85083 8.082042,-5.08597 9.431529,-8.92551 0.397791,-1.13178 0.982246,-4.4058 1.29879,-7.27559 1.085969,-9.84544 3.152221,-15.20001 7.701008,-19.95671 0.832471,-0.87052 1.363071,-1.72784 1.216321,-1.9653 -0.47102,-0.76214 -3.071803,-2.20758 -5.357539,-2.9776 -2.985699,-1.00579 -7.149896,-1.00257 -10.821199,0.008 -1.528227,0.42083 -6.372616,2.50102 -10.765308,4.62262 -9.386389,4.53349 -12.416576,5.44904 -18.013936,5.44274 -3.271169,-0.004 -5.639286,-0.30615 -8.175051,-1.04415 -1.557341,-0.45326 1.464804,2.13534 3.882616,3.32564 2.15344,1.06013 2.81151,1.19691 6.318611,1.31333 4.766281,0.15825 7.753752,-0.46541 12.1916,-2.54505 1.735829,-0.81344 3.247769,-1.47897 3.35987,-1.47897 0.55671,0 -2.288191,2.49823 -4.642631,4.07689 -2.901532,1.94551 -7.483516,3.66095 -10.599945,3.9685 -4.360598,0.43035 -10.590567,-1.80712 -13.801932,-4.95687 -3.434058,-3.3682 -6.405806,-8.46012 -7.49353,-12.83974 -0.322781,-1.29966 -0.01551,-1.28627 1.525161,0.0664 1.851127,1.6253 5.996583,3.94238 8.713566,4.87039 4.337265,1.48142 10.96393,1.37911 15.909058,-0.2456 0.948974,-0.31178 5.48659,-2.38211 10.083593,-4.60071 4.597003,-2.21861 9.444752,-4.31592 10.772775,-4.66071 3.31558,-0.8608 8.847245,-0.87045 11.685597,-0.0204 2.784838,0.83401 5.169454,2.03677 7.373314,3.71901 l 1.7201,1.31299 3.07646,-1.46483 c 4.30137,-2.04806 6.85365,-2.65687 11.99187,-2.86054 3.52684,-0.13978 5.87019,0.0242 11.22176,0.78564 13.39159,1.90521 20.75172,1.07877 28.87333,-3.2421 3.19016,-1.69725 7.75737,-6.21894 12.15727,-12.036129 4.66236,-6.164186 8.75866,-10.552693 12.78388,-13.695805 5.43757,-4.245971 13.86801,-7.622212 20.46948,-8.197664 2.55288,-0.222538 2.74637,-0.30839 4.53067,-2.010253 1.02516,-0.977782 2.5833,-2.196766 3.46255,-2.708854 1.62582,-0.946876 7.19414,-2.753046 7.51092,-2.436272 0.0956,0.09554 -0.41362,2.536935 -1.13149,5.425318 l -1.30519,5.251602 7.88431,11.82698 c 4.33635,6.504843 8.116,12.380297 8.3992,13.056587 0.99536,2.37687 -0.7994,7.87597 -2.89936,8.88364 -0.5214,0.2502 -2.14133,0.65953 -3.59984,0.90962 -3.49521,0.59938 -4.70651,0.0711 -6.29632,-2.74588 -1.81185,-3.21044 -4.87762,-5.13986 -9.6039,-6.04413 -1.55882,-0.29826 -3.55258,-0.96327 -4.43057,-1.47781 -4.72185,-2.76719 -6.68351,-8.567368 -4.42822,-13.093148 1.36074,-2.730641 1.83401,-2.716692 1.87321,0.0552 0.0628,4.441657 2.85635,8.575496 6.53294,9.667327 1.06022,0.314861 2.29277,0.572451 2.73901,0.572451 1.19246,0 5.68646,2.35069 7.56019,3.95455 0.89413,0.76534 2.19289,2.27822 2.88614,3.36193 1.0682,1.66987 1.43241,1.97041 2.38789,1.97041 0.62008,0 1.46491,-0.18062 1.8774,-0.40137 0.72994,-0.39065 1.80151,-2.41953 1.80151,-3.41094 0,-0.2711 -3.83011,-6.13989 -8.51133,-13.041769 l -8.51133,-12.548854 0.88189,-3.205445 c 0.48506,-1.762995 0.81903,-3.268324 0.74218,-3.345177 -0.32976,-0.329758 -1.75739,0.805574 -3.60505,2.866921 l -1.9847,2.214252 -3.34326,0.424885 c -5.71388,0.726155 -12.58287,3.404862 -17.2736,6.736189 -3.7252,2.645621 -8.20669,7.468001 -13.57735,14.610168 -11.21759,14.91766 -16.64522,19.27323 -31.29278,25.11192 -12.65549,5.04462 -15.60185,7.21578 -22.63429,16.67902 -2.04971,2.75821 -4.81906,6.19565 -6.15414,7.63875 -4.49111,4.85455 -10.50997,8.34656 -20.124448,11.67578 -6.65285,2.30369 -7.857792,2.88872 -10.875185,5.28017 -2.50725,1.98713 -4.985235,5.43718 -8.082191,11.25265 -2.398472,4.50385 -4.553496,7.48836 -7.063683,9.78252 -3.544025,3.23903 -9.320495,6.00516 -12.540541,6.00516 h -1.469087 z m 38.332451,-35.79273 c 11.977317,-4.12008 15.893077,-6.99032 23.513457,-17.23534 7.99519,-10.7489 11.05692,-12.97343 25.32009,-18.39652 2.57916,-0.98065 5.33737,-2.13095 6.12933,-2.5562 l 1.43993,-0.77323 -2.04311,0.27594 c -3.73872,0.50495 -11.18687,0.22704 -17.27359,-0.64446 -6.61353,-0.94696 -13.08368,-1.10654 -16.16879,-0.39878 -1.11842,0.25658 -3.45439,1.14227 -5.19103,1.9682 -5.46733,2.60018 -9.930308,7.96736 -11.661622,14.02425 -0.321206,1.12372 -0.848363,4.46214 -1.171462,7.41875 -0.648016,5.92985 -1.455212,8.80517 -3.349524,11.93134 -1.24997,2.06283 -4.605564,5.53873 -5.347028,5.53873 -0.213065,0 -0.38739,0.16716 -0.38739,0.37148 0,0.57484 0.312359,0.49795 6.190739,-1.52416 z m -17.093778,29.47765 c 1.136409,-1.58341 2.406864,-3.54759 2.823232,-4.36484 0.416369,-0.81724 1.864878,-2.57246 3.218909,-3.90048 1.760321,-1.72652 2.867691,-3.23882 3.88595,-5.30694 1.701887,-3.45659 2.251101,-3.80064 10.604655,-6.643 2.978269,-1.01337 6.964459,-2.57487 8.858209,-3.46998 3.68516,-1.74185 8.73658,-5.19649 10.85861,-7.42617 1.58064,-1.66082 3.97827,-2.92361 6.61198,-3.48243 2.32929,-0.49422 7.13261,-0.55705 7.13261,-0.0933 0,0.17841 -1.77301,2.03209 -3.94,4.11928 -8.26929,7.96475 -14.2853,10.57988 -26.99292,11.73365 -3.333081,0.30262 -3.968917,0.87793 -8.308015,7.5171 -5.229108,8.00096 -8.420228,11.02515 -13.943363,13.21402 -1.362869,0.54011 -2.567519,0.98202 -2.677,0.98202 -0.109473,0 0.730734,-1.29553 1.867143,-2.87893 z m 107.606735,-17.8308 c 0.1196,-0.76616 1.01905,-2.97938 1.99886,-4.91823 2.1619,-4.27806 2.76638,-4.63673 5.69268,-3.37789 3.51049,1.51018 4.84144,0.60227 9.50034,-6.48074 4.16276,-6.32869 4.46673,-7.00746 3.67758,-8.21186 -1.01903,-1.55522 -3.36731,-1.05361 -12.09438,2.58349 -5.3502,2.22975 -8.80184,2.95809 -13.13279,2.77116 -3.02678,-0.13065 -4.16206,-0.34971 -5.89195,-1.13696 -2.84667,-1.29545 -5.7551,-4.25514 -7.33451,-7.46371 -1.0671,-2.1678 -1.28027,-3.04427 -1.41235,-5.80632 -0.24977,-5.22452 0.16654,-5.25213 2.93914,-0.19487 1.30809,2.386 3.11629,5.08897 4.01819,6.00661 3.70544,3.77012 8.05098,4.66444 14.51933,2.98812 3.51424,-0.91076 10.26818,-3.38804 10.93993,-4.01269 0.20505,-0.19064 -2.94675,-0.32813 -7.52236,-0.32813 -4.33139,0 -7.87527,-0.11219 -7.87527,-0.24947 0,-0.13719 0.43257,-1.33069 0.96126,-2.65222 2.08655,-5.21559 1.40721,-10.74897 -1.76167,-14.349 -2.67663,-3.04081 -7.26128,-5.03781 -11.56565,-5.03781 -2.54745,0 -2.47446,-0.3426 0.26643,-1.25079 2.33605,-0.77404 6.56002,-0.77749 9.15329,-0.007 4.57666,1.35895 8.23166,5.07482 9.46183,9.61939 0.50249,1.85636 0.60361,3.21747 0.44124,5.93899 l -0.21064,3.5307 h 10.65593 c 9.65759,0 10.7772,0.0645 11.95031,0.68783 1.96686,1.0452 2.96599,2.7636 2.96599,5.10119 0,1.75992 -0.20513,2.26656 -1.97066,4.86712 -5.02085,7.39541 -10.97056,15.62129 -12.20259,16.87088 -2.60119,2.63823 -10.8504,5.90573 -14.90982,5.90573 h -1.47509 z m -30.07585,-15.474 c -3.04841,-0.58348 -3.05647,-0.58587 -12.9497,-3.83932 -7.17639,-2.35998 -7.5919,-2.45069 -12.19665,-2.66276 l -4.76715,-0.21956 1.77971,-2.32171 1.77972,-2.32172 2.43024,0.003 c 3.06531,0.004 6.75187,0.8869 15.32545,3.67328 7.72819,2.51165 11.61733,3.20518 16.27993,2.90311 l 3.24153,-0.21002 1.06524,1.13532 c 0.58588,0.62442 1.6967,1.60043 2.46848,2.16892 l 1.40325,1.03362 -1.96045,0.4282 c -3.12187,0.68187 -10.8691,0.81007 -13.8996,0.23003 z M 47.781611,139.54331 c -2.151552,-0.2669 -5.809813,-1.35265 -6.091112,-1.80779 -0.09048,-0.1464 0.894264,-0.19877 2.188316,-0.11648 2.593703,0.16515 7.39691,-0.67434 10.21599,-1.78551 3.257622,-1.28404 6.081963,-3.43033 11.711602,-8.89991 4.281001,-4.15931 6.141818,-5.69969 8.030764,-6.6479 2.833146,-1.42215 6.123113,-1.89567 8.263397,-1.18932 1.525594,0.50349 1.471441,1.13117 -0.09759,1.13117 -0.568243,0 -2.104643,0.52515 -3.41422,1.16699 -1.891802,0.92719 -3.449662,2.24602 -7.581702,6.41838 -6.207973,6.26856 -7.673618,7.48824 -11.329987,9.4286 -3.853572,2.04501 -7.803441,2.80928 -11.895458,2.30165 z M 182.54647,128.88425 c -0.12857,-2.46301 -0.45265,-4.3289 -1.00132,-5.7651 -0.76174,-1.99394 -0.78739,-2.37917 -0.42052,-6.31508 0.63634,-6.82665 2.05409,-11.08514 5.02979,-15.10818 l 1.75499,-2.372661 0.72666,1.623021 c 0.39965,0.89266 0.97465,1.89707 1.27777,2.23203 0.49197,0.54361 0.43216,0.80356 -0.55712,2.42126 -2.25708,3.69091 -2.72554,5.90021 -3.06228,14.44242 -0.16916,4.29054 -0.51837,8.80396 -0.77604,10.02982 -0.44242,2.10478 -0.5329,2.23512 -1.62517,2.3415 l -1.15669,0.11271 z M 42.05058,111.37223 c 0.194095,-0.17134 1.520082,-0.51697 2.946636,-0.76806 3.734424,-0.65731 6.42721,-1.64609 11.50134,-4.22328 12.503058,-6.35038 16.581499,-7.989645 22.404444,-9.005088 5.370415,-0.93652 14.24733,-0.553618 15.00958,0.64744 0.16516,0.260247 0.30285,1.194868 0.30597,2.076968 0.005,1.35354 -0.0958,1.57415 -0.64439,1.41374 -3.76285,-1.10012 -10.805347,-1.27331 -15.880553,-0.39053 -4.360691,0.75849 -6.985587,1.66323 -16.059303,5.53522 -8.411329,3.58934 -13.357113,5.02514 -17.309637,5.02514 -1.447263,0 -2.468508,-0.13991 -2.274087,-0.31155 z m 90.61621,-5.03366 c -1.43301,-0.2739 -3.6395,-0.91565 -4.90331,-1.42613 -2.26244,-0.91385 -6.20546,-3.22694 -5.94491,-3.48749 0.0733,-0.0733 1.79315,0.29597 3.82174,0.82074 3.10042,0.80206 4.51731,0.95472 8.88898,0.95773 6.15657,0.005 8.86799,-0.59094 15.29891,-3.358164 4.02594,-1.732367 4.15117,-1.761474 3.47154,-0.807027 -0.94676,1.329591 -3.66636,3.810081 -5.44051,4.962161 -3.4681,2.25206 -10.21235,3.29004 -15.19244,2.33818 z m -29.65523,-1.48811 c -5.15107,-1.92175 -5.83408,-7.848654 -1.36847,-11.875168 2.84341,-2.563818 7.03231,-3.766361 10.13524,-2.9096 l 1.39114,0.384111 V 73.577633 56.705464 h 1.80692 1.8069 l 0.65894,1.764507 c 0.50972,1.364937 1.69187,2.784038 5.2204,6.266796 5.38843,5.318545 6.51182,7.162902 6.76065,11.099661 0.12909,2.042929 -0.007,3.051627 -0.63046,4.705706 -0.76727,2.03239 -3.43399,5.545834 -3.88014,5.112128 -0.11999,-0.116597 0.11414,-1.157194 0.52018,-2.312439 1.92863,-5.487304 0.037,-9.869652 -5.54414,-12.84439 -1.19889,-0.639001 -2.27417,-1.161819 -2.38951,-1.161819 -0.11531,0 -0.2591,6.226851 -0.31947,13.837444 l -0.10972,13.837444 -1.04516,2.128399 c -1.73692,3.537099 -5.08774,5.741119 -9.21422,6.060759 -1.56454,0.12116 -2.85648,0.003 -3.79902,-0.3492 z M 55.034746,99.42329 c 0.371226,-0.600653 4.164174,-3.054555 8.171336,-5.286548 9.632255,-5.365183 19.049556,-7.577003 28.277448,-6.641461 2.35661,0.238917 5.12501,0.614599 6.15199,0.834847 l 1.86726,0.400453 -1.5324,1.56139 -1.53239,1.561389 -2.68564,-0.471352 c -1.4771,-0.259244 -4.99968,-0.477988 -7.827942,-0.486097 -8.335873,-0.02391 -14.339488,1.474114 -24.685087,6.159403 -3.329142,1.507688 -6.139001,2.741257 -6.24413,2.741257 -0.105131,0 -0.08733,-0.167972 0.03956,-0.373281 z m 76.280984,-2.436577 c -2.92856,-0.529985 -8.54719,-2.412218 -9.45861,-3.168618 -0.29943,-0.248503 -0.51519,-1.126766 -0.51519,-2.097052 0,-1.421128 0.0967,-1.638709 0.65008,-1.462637 0.35754,0.113763 2.07097,0.698524 3.80762,1.299469 4.67421,1.617443 7.78973,2.059768 12.87009,1.827211 5.72232,-0.261945 8.93628,-1.211201 18.59593,-5.492375 4.12824,-1.829641 7.62112,-3.326621 7.76199,-3.326621 0.14086,0 -0.56584,0.87761 -1.57043,1.950243 -1.00461,1.072634 -2.18354,2.412817 -2.61983,2.978182 -0.99786,1.293036 -7.172,4.272463 -12.40788,5.987611 -6.33794,2.076157 -11.46478,2.526893 -17.11377,1.504587 z m 7.92248,-9.846302 c -1.92133,-0.378104 -5.09272,-1.799044 -6.38043,-2.858755 l -0.92856,-0.764151 1.67151,0.322376 c 2.66869,0.514699 8.6327,0.403957 11.57477,-0.214922 1.48941,-0.31331 5.30332,-1.671573 8.47533,-3.018361 13.14761,-5.582274 16.67648,-6.544836 23.26395,-6.345633 2.90132,0.08774 3.78567,0.214781 3.1202,0.448243 -0.51077,0.179193 -2.34958,1.025702 -4.08623,1.881131 -1.97431,0.9725 -4.52183,1.848162 -6.79829,2.336789 -2.59074,0.556085 -5.53693,1.628079 -10.21556,3.717004 -3.61614,1.614548 -7.41063,3.200375 -8.43217,3.524061 -4.09113,1.296291 -7.93285,1.627863 -11.26452,0.972218 z M 67.478044,84.868809 c 1.590568,-1.34788 8.194706,-4.288514 11.863748,-5.282586 8.291704,-2.246516 15.428788,-2.136239 23.683718,0.365939 5.81327,1.762082 5.68626,1.676162 5.68626,3.846791 v 1.80705 l -4.17908,-1.431901 c -2.29851,-0.787545 -5.877,-1.773761 -7.95221,-2.191593 -8.3207,-1.675327 -18.89947,-0.592775 -27.211226,2.784594 -2.7286,1.108729 -3.103331,1.128883 -1.89121,0.101711 z m 77.328166,-8.440883 c -1.7825,-0.615593 -5.26201,-3.377617 -5.26201,-4.176967 0,-0.150283 0.79405,0.08117 1.76451,0.514354 2.20669,0.984967 7.1331,1.312049 10.07517,0.668926 1.14986,-0.251351 5.08742,-1.708694 8.75016,-3.238539 9.16129,-3.826471 11.06543,-4.298103 17.48635,-4.331201 3.78291,-0.01949 5.85889,0.145946 7.61524,0.606896 2.93471,0.770214 10.23424,4.297002 9.79103,4.730573 -0.17512,0.171328 -1.90647,0.352053 -3.84743,0.401611 -2.95495,0.07545 -3.89157,-0.05105 -5.75785,-0.77764 -1.79122,-0.697363 -3.14062,-0.897644 -6.8723,-1.020005 -4.05994,-0.133125 -5.09722,-0.03523 -8.25444,0.778981 -1.98606,0.512182 -5.07859,1.547754 -6.87229,2.301273 -1.79372,0.753519 -5.10008,2.017083 -7.34751,2.807918 -4.76362,1.67625 -7.94069,1.883142 -11.26863,0.73382 z"
       id="path9" /></g></svg>
