<?xml version="1.0" encoding="UTF-8" standalone="no"?>
<!-- Created with Inkscape (http://www.inkscape.org/) -->

<svg
   width="240mm"
   height="240mm"
   viewBox="0 0 240 240"
   version="1.1"
   id="svg1"
   xml:space="preserve"
   sodipodi:docname="icon.svg"
   inkscape:version="1.4.2 (f4327f4, 2025-05-13)"
   inkscape:export-filename="icon.png"
   inkscape:export-xdpi="96"
   inkscape:export-ydpi="96"
   xmlns:inkscape="http://www.inkscape.org/namespaces/inkscape"
   xmlns:sodipodi="http://sodipodi.sourceforge.net/DTD/sodipodi-0.dtd"
   xmlns:xlink="http://www.w3.org/1999/xlink"
   xmlns="http://www.w3.org/2000/svg"
   xmlns:svg="http://www.w3.org/2000/svg"><sodipodi:namedview
     id="namedview1"
     pagecolor="#ffffff"
     bordercolor="#000000"
     borderopacity="0.25"
     inkscape:showpageshadow="2"
     inkscape:pageopacity="0.0"
     inkscape:pagecheckerboard="true"
     inkscape:deskcolor="#d1d1d1"
     inkscape:document-units="mm"
     inkscape:antialias-rendering="false"
     inkscape:zoom="0.32311772"
     inkscape:cx="171.76402"
     inkscape:cy="827.87165"
     inkscape:window-width="1920"
     inkscape:window-height="1009"
     inkscape:window-x="-8"
     inkscape:window-y="-8"
     inkscape:window-maximized="1"
     inkscape:current-layer="layer1"><inkscape:page
       x="0"
       y="0"
       width="240"
       height="240"
       id="page2"
       margin="0"
       bleed="0" /></sodipodi:namedview><defs
     id="defs1"><linearGradient
       id="linearGradient4"
       inkscape:collect="always"><stop
         style="stop-color:#5981ff;stop-opacity:1;"
         offset="0"
         id="stop5" /><stop
         style="stop-color:#48e9ff;stop-opacity:1;"
         offset="1"
         id="stop6" /></linearGradient><linearGradient
       inkscape:collect="always"
       xlink:href="#linearGradient4"
       id="linearGradient6"
       x1="204.85281"
       y1="204.85283"
       x2="35.147179"
       y2="35.147194"
       gradientUnits="userSpaceOnUse" /></defs><g
     inkscape:label="Layer 1"
     inkscape:groupmode="layer"
     id="layer1"><rect
       style="fill:url(#linearGradient6);stroke-width:6.55972;stroke-linecap:square;stroke-miterlimit:0;fill-opacity:1"
       id="rect1"
       width="240"
       height="240"
       x="-6.9936118e-07"
       y="-6.9936118e-07"
       ry="6.621387" /><path
       style="display:inline;fill:#ffffff;fill-opacity:1;stroke-width:0.72"
       d="M -62.456461,120.00001 V 20.27325 219.72676 Z M 58.265895,174.0782 c 0.310245,-1.66674 1.495514,-4.88001 2.317386,-6.28242 0.615322,-1.04997 0.851758,-1.23889 1.360326,-1.08691 1.75482,0.52435 2.74605,0.49699 4.000855,-0.11045 2.816659,-1.36353 6.183522,-7.48266 8.187351,-14.88016 0.489578,-1.80737 1.061746,-3.54967 1.271485,-3.87177 0.209739,-0.32211 1.263236,-0.93566 2.341105,-1.36344 3.587301,-1.42372 6.216955,-3.91229 7.255022,-6.86578 0.305993,-0.8706 0.755574,-3.38908 0.999069,-5.59661 0.835361,-7.57341 2.424786,-11.69231 5.923853,-15.35131 0.640362,-0.66963 1.048518,-1.32911 0.935634,-1.51177 -0.362329,-0.58626 -2.362928,-1.69814 -4.121187,-2.29046 -2.296691,-0.77369 -5.49992,-0.77121 -8.323999,0.006 -1.175559,0.32371 -4.902012,1.92386 -8.281006,3.55586 -7.220299,3.4873 -9.551212,4.19157 -13.856874,4.18672 -2.516284,-0.003 -4.337912,-0.2355 -6.288501,-0.80319 -1.197954,-0.34866 1.126773,1.64257 2.986628,2.55818 1.656492,0.81549 2.1627,0.9207 4.86047,1.01026 3.66637,0.12173 5.964425,-0.35801 9.378154,-1.95773 1.335253,-0.62573 2.498284,-1.13767 2.584515,-1.13767 0.428239,0 -1.760147,1.92171 -3.571254,3.13607 -2.231948,1.49654 -5.756551,2.81611 -8.153804,3.05269 -3.354306,0.33104 -8.14659,-1.39009 -10.616871,-3.81298 -2.641583,-2.59092 -4.927543,-6.50778 -5.764254,-9.87672 -0.248293,-0.99974 -0.01193,-0.98944 1.173201,0.0511 1.423944,1.25023 4.612756,3.0326 6.702743,3.74645 3.336358,1.13956 8.433792,1.06086 12.237737,-0.18892 0.72998,-0.23983 4.220454,-1.83239 7.75661,-3.53901 3.536156,-1.70662 7.265194,-3.31994 8.28675,-3.58516 2.550446,-0.66215 6.805573,-0.66958 8.988921,-0.0157 2.142183,0.64155 3.9765,1.56675 5.671776,2.86078 l 1.323154,1.00999 2.366513,-1.12679 c 3.308747,-1.57543 5.272037,-2.04375 9.224517,-2.20042 2.71295,-0.10752 4.51553,0.0186 8.63212,0.60434 10.30122,1.46555 15.96286,0.82982 22.21025,-2.49392 2.45397,-1.30558 5.96721,-4.7838 9.35175,-9.25856 3.58643,-4.741681 6.73743,-8.117456 9.83375,-10.535234 4.18275,-3.266132 10.6677,-5.86324 15.74576,-6.305896 1.96375,-0.171183 2.11259,-0.237223 3.48513,-1.546348 0.78858,-0.75214 1.98715,-1.68982 2.6635,-2.083734 1.25063,-0.728366 5.53395,-2.117728 5.77763,-1.874055 0.0735,0.07349 -0.31817,1.951488 -0.87038,4.173321 l -1.00399,4.039694 6.06485,9.097677 c 3.33566,5.003725 6.24308,9.523305 6.46093,10.043525 0.76566,1.82836 -0.61493,6.05844 -2.23028,6.83357 -0.40108,0.19246 -1.64718,0.50733 -2.76911,0.69971 -2.68862,0.46106 -3.62039,0.0547 -4.84332,-2.11222 -1.39373,-2.46957 -3.75202,-3.95374 -7.38762,-4.64933 -1.19909,-0.22943 -2.73275,-0.74098 -3.40813,-1.13678 -3.63219,-2.1286 -5.14116,-6.590276 -3.40632,-10.071645 1.04672,-2.100493 1.41078,-2.089763 1.44093,0.04246 0.0483,3.416659 2.19719,6.596535 5.02534,7.436405 0.81555,0.2422 1.76367,0.44035 2.10693,0.44035 0.91728,0 4.3742,1.80822 5.81553,3.04196 0.68779,0.58872 1.68684,1.75247 2.22011,2.5861 0.82169,1.28451 1.10185,1.5157 1.83684,1.5157 0.47698,0 1.12685,-0.13894 1.44415,-0.30875 0.56149,-0.3005 1.38578,-1.86118 1.38578,-2.6238 0,-0.20854 -2.94624,-4.72299 -6.54718,-10.032127 l -6.54718,-9.652965 0.67838,-2.465727 c 0.37312,-1.35615 0.63002,-2.514095 0.57091,-2.573213 -0.25366,-0.25366 -1.35184,0.619672 -2.77312,2.205324 l -1.52669,1.703271 -2.57174,0.326834 c -4.39529,0.558581 -9.67913,2.619125 -13.28738,5.181684 -2.86554,2.035093 -6.31284,5.744616 -10.44412,11.238589 -8.62891,11.47512 -12.80401,14.82556 -24.07137,19.31686 -9.73499,3.88048 -12.00142,5.5506 -17.41099,12.83002 -1.5767,2.1217 -3.70697,4.76588 -4.73395,5.87596 -3.4547,3.73427 -8.084592,6.42043 -15.480348,8.98137 -5.117577,1.77207 -6.044455,2.22209 -8.365527,4.06167 -1.928654,1.52856 -3.834796,4.18244 -6.21707,8.65588 -1.844978,3.4645 -3.502689,5.76028 -5.433602,7.52502 -2.726173,2.49156 -7.169612,4.61935 -9.64657,4.61935 h -1.130067 z m 29.486501,-27.53287 c 9.213321,-3.16929 12.225441,-5.37717 18.087274,-13.25795 6.15015,-8.26839 8.50532,-9.97956 19.47699,-14.15117 1.98397,-0.75435 4.10567,-1.63919 4.71487,-1.96631 l 1.10764,-0.59479 -1.57162,0.21226 c -2.87594,0.38842 -8.60529,0.17465 -13.28738,-0.49574 -5.08733,-0.72843 -10.06437,-0.85118 -12.43753,-0.30675 -0.86032,0.19737 -2.65722,0.87867 -3.993098,1.514 -4.20564,2.00014 -7.638701,6.12874 -8.970481,10.78788 -0.247081,0.8644 -0.652587,3.43242 -0.901124,5.70673 -0.498474,4.56143 -1.119394,6.77321 -2.576557,9.17796 -0.961516,1.58679 -3.542742,4.26056 -4.113099,4.26056 -0.163896,0 -0.297992,0.12858 -0.297992,0.28575 0,0.44219 0.240276,0.38304 4.762107,-1.17243 z m -13.14906,22.67512 c 0.874161,-1.21801 1.851434,-2.72892 2.171717,-3.35757 0.320284,-0.62865 1.434521,-1.97882 2.476084,-3.00037 1.354093,-1.32809 2.205916,-2.4914 2.989192,-4.08226 1.309144,-2.65892 1.731616,-2.92357 8.157427,-5.11 2.290974,-0.77952 5.357274,-1.98067 6.814003,-2.66922 2.834741,-1.33988 6.720451,-3.9973 8.352781,-5.71244 1.21588,-1.27755 3.06021,-2.24893 5.08614,-2.67879 1.79176,-0.38017 5.48662,-0.4285 5.48662,-0.0718 0,0.13724 -1.36385,1.56315 -3.03077,3.16868 -6.36099,6.12673 -10.98869,8.13837 -20.763779,9.02588 -2.563912,0.23279 -3.053017,0.67533 -6.390784,5.78239 -4.022391,6.15458 -6.477099,8.48088 -10.725664,10.16463 -1.048361,0.41547 -1.975015,0.7554 -2.059231,0.7554 -0.08421,0 0.562103,-0.99656 1.436264,-2.21456 z m 82.774414,-13.716 c 0.092,-0.58936 0.78388,-2.29183 1.53758,-3.78326 1.663,-3.29081 2.12799,-3.56671 4.37899,-2.59837 2.70037,1.16167 3.72418,0.46328 7.30795,-4.98519 3.20212,-4.86822 3.43595,-5.39035 2.82891,-6.31681 -0.78387,-1.19633 -2.59024,-0.81047 -9.30337,1.9873 -4.11554,1.71519 -6.77065,2.27545 -10.10215,2.13166 -2.32829,-0.1005 -3.20158,-0.26901 -4.53227,-0.87459 -2.18974,-0.9965 -4.427,-3.27318 -5.64193,-5.74131 -0.82084,-1.66754 -0.98482,-2.34175 -1.08642,-4.4664 -0.19213,-4.01886 0.12811,-4.0401 2.26088,-0.1499 1.00622,1.83538 2.39714,3.91459 3.09091,4.62047 2.85034,2.90009 6.19306,3.58803 11.16872,2.29855 2.70326,-0.70058 7.8986,-2.60618 8.41533,-3.08668 0.15773,-0.14665 -2.26673,-0.25241 -5.78643,-0.25241 -3.33184,0 -6.0579,-0.0863 -6.0579,-0.1919 0,-0.10553 0.33274,-1.02361 0.73943,-2.04017 1.60504,-4.01199 1.08247,-8.26844 -1.35513,-11.03769 -2.05895,-2.33909 -5.5856,-3.87524 -8.89666,-3.87524 -1.95957,0 -1.90343,-0.26354 0.20495,-0.96215 1.79696,-0.59541 5.04617,-0.59807 7.04099,-0.005 3.52051,1.04535 6.33205,3.90371 7.27833,7.39953 0.38653,1.42797 0.46432,2.47498 0.33942,4.56846 l -0.16203,2.71592 h 8.19687 c 7.42891,0 8.29015,0.0496 9.19254,0.5291 1.51297,0.804 2.28153,2.12585 2.28153,3.92399 0,1.35379 -0.15779,1.74351 -1.51589,3.74394 -3.86219,5.68878 -8.43889,12.01638 -9.38661,12.9776 -2.00091,2.02941 -8.34646,4.54287 -11.46909,4.54287 h -1.13468 z m -23.13527,-11.90308 c -2.34493,-0.44883 -2.35113,-0.45067 -9.96131,-2.95332 -5.5203,-1.81537 -5.83992,-1.88515 -9.38204,-2.04828 l -3.66704,-0.16889 1.36901,-1.78593 1.36902,-1.78594 1.86941,0.002 c 2.35793,0.003 5.19375,0.68223 11.78881,2.8256 5.94476,1.93204 8.93641,2.46552 12.52302,2.23316 l 2.49349,-0.16155 0.81941,0.87332 c 0.45068,0.48032 1.30516,1.2311 1.89883,1.6684 l 1.07943,0.79509 -1.50804,0.32939 c -2.40144,0.52451 -8.36085,0.62313 -10.692,0.17694 z m -73.261293,-10.4577 c -1.65504,-0.20531 -4.469087,-1.0405 -4.685471,-1.39061 -0.0696,-0.11261 0.687895,-0.1529 1.68332,-0.0896 1.995156,0.12704 5.689931,-0.51872 7.858454,-1.37347 2.505863,-0.98772 4.678433,-2.63871 9.008924,-6.84608 3.293078,-3.19947 4.724476,-4.38438 6.177511,-5.11377 2.179343,-1.09396 4.710087,-1.45821 6.356459,-0.91486 1.173534,0.3873 1.131878,0.87013 -0.07507,0.87013 -0.43711,0 -1.618956,0.40396 -2.626323,0.89768 -1.455232,0.71323 -2.653586,1.72771 -5.832078,4.93722 -4.775364,4.82197 -5.902783,5.76018 -8.715375,7.25277 -2.964286,1.57308 -6.002647,2.16098 -9.150352,1.7705 z m 103.665273,-8.19928 c -0.0989,-1.89462 -0.34819,-3.32992 -0.77024,-4.43469 -0.58596,-1.5338 -0.60569,-1.83013 -0.32348,-4.85775 0.48949,-5.25127 1.58007,-8.52703 3.86907,-11.62168 l 1.34999,-1.82512 0.55897,1.24848 c 0.30742,0.68666 0.74973,1.45928 0.9829,1.71694 0.37844,0.41816 0.33243,0.61812 -0.42855,1.86251 -1.73622,2.83916 -2.09657,4.53862 -2.3556,11.10955 -0.13013,3.30042 -0.39875,6.77228 -0.59696,7.71525 -0.34032,1.61906 -0.40992,1.71932 -1.25013,1.80115 l -0.88976,0.0867 z M 56.572701,111.47361 c 0.149304,-0.1318 1.169294,-0.39767 2.266643,-0.59082 2.872634,-0.50562 4.944008,-1.26622 8.847185,-3.24867 9.617737,-4.88491 12.754999,-6.14588 17.234188,-6.92699 4.131088,-0.7204 10.959485,-0.42586 11.545829,0.49803 0.127046,0.20019 0.23296,0.91913 0.235363,1.59767 0.0036,1.04118 -0.07366,1.21088 -0.495683,1.08749 -2.894504,-0.84625 -8.311807,-0.97947 -12.215812,-0.30041 -3.354377,0.58346 -5.373528,1.27941 -12.35331,4.25786 -6.470253,2.76103 -10.274702,3.86549 -13.315105,3.86549 -1.113279,0 -1.898852,-0.10762 -1.749298,-0.23965 z m 69.704779,-3.87205 c -1.10232,-0.21069 -2.79962,-0.70434 -3.77178,-1.09702 -1.74034,-0.70296 -4.77343,-2.48226 -4.57301,-2.68268 0.0564,-0.0564 1.37935,0.22767 2.9398,0.63134 2.38494,0.61696 3.47486,0.73439 6.83768,0.73671 4.73582,0.004 6.82153,-0.45457 11.76839,-2.5832 3.09688,-1.33259 3.19321,-1.35498 2.67042,-0.62079 -0.72828,1.02276 -2.82028,2.93083 -4.18501,3.81704 -2.66777,1.73236 -7.85565,2.5308 -11.68649,1.7986 z m -22.81172,-1.1447 c -3.962358,-1.47827 -4.487751,-6.03742 -1.05267,-9.134738 2.18724,-1.972168 5.40947,-2.897201 7.79634,-2.238154 l 1.07011,0.29547 V 82.400846 69.422254 h 1.38994 1.38992 l 0.50688,1.357313 c 0.39209,1.049952 1.30144,2.141568 4.01569,4.820613 4.14495,4.091188 5.00909,5.509924 5.2005,8.5382 0.0993,1.571484 -0.005,2.347406 -0.48497,3.619774 -0.59021,1.563377 -2.64153,4.266026 -2.98472,3.932406 -0.0923,-0.08969 0.0878,-0.890149 0.40014,-1.778799 1.48356,-4.221003 0.0285,-7.59204 -4.26473,-9.8803 -0.92222,-0.491539 -1.74936,-0.893707 -1.83808,-0.893707 -0.0887,0 -0.19931,4.789886 -0.24575,10.644188 l -0.0844,10.644188 -0.80397,1.63723 c -1.33609,2.72084 -3.91364,4.41624 -7.08786,4.66212 -1.20349,0.0932 -2.19729,0.002 -2.92232,-0.26862 z m -36.905239,-4.17474 c 0.285559,-0.46204 3.203211,-2.349657 6.285643,-4.066575 7.409427,-4.127064 14.653505,-5.828464 21.751887,-5.108816 1.812777,0.183782 3.942315,0.472768 4.732299,0.64219 l 1.43635,0.308041 -1.17877,1.201069 -1.178757,1.201068 -2.065879,-0.362578 C 95.20706,95.8971 92.497388,95.728836 90.3218,95.722598 c -6.41221,-0.01839 -11.030376,1.133934 -18.988529,4.738002 -2.560878,1.15976 -4.722308,2.10866 -4.803177,2.10866 -0.08087,0 -0.06718,-0.12921 0.03043,-0.28714 z m 58.677679,-1.87429 c -2.25274,-0.40768 -6.57476,-1.855552 -7.27585,-2.437398 -0.23033,-0.191156 -0.3963,-0.866743 -0.3963,-1.613117 0,-1.093175 0.0744,-1.260545 0.50006,-1.125105 0.27503,0.08751 1.59305,0.537326 2.92894,0.999591 3.59554,1.244187 5.9921,1.584437 9.90007,1.405547 4.40178,-0.201496 6.87406,-0.931693 14.30456,-4.224904 3.17557,-1.407416 5.8624,-2.558939 5.97076,-2.558939 0.10835,0 -0.43526,0.675085 -1.20802,1.500187 -0.77278,0.825103 -1.67965,1.856013 -2.01526,2.290909 -0.76758,0.994643 -5.51692,3.28651 -9.54452,4.605855 -4.87534,1.597044 -8.81906,1.943764 -13.16444,1.157374 z m 6.09422,-7.574078 c -1.47795,-0.290849 -3.91748,-1.38388 -4.90803,-2.199042 l -0.71427,-0.587809 1.28577,0.247982 c 2.05284,0.395922 6.64054,0.310736 8.90367,-0.165325 1.1457,-0.241008 4.07948,-1.285825 6.51949,-2.321816 10.11354,-4.294057 12.82806,-5.034489 17.89534,-4.881256 2.23179,0.06749 2.91206,0.165216 2.40016,0.344802 -0.3929,0.137841 -1.80737,0.789002 -3.14326,1.447024 -1.5187,0.748077 -3.47833,1.421663 -5.22945,1.79753 -1.99288,0.427758 -4.25918,1.252368 -7.85812,2.859234 -2.78165,1.24196 -5.70049,2.461827 -6.48629,2.710816 -3.14702,0.997147 -6.10219,1.252202 -8.66501,0.74786 z M 76.132289,91.086366 c 1.223514,-1.036831 6.30362,-3.298857 9.12596,-4.063528 6.378234,-1.728089 11.868298,-1.643261 18.218241,0.281492 4.47175,1.355447 4.37405,1.289355 4.37405,2.95907 v 1.390038 l -3.21468,-1.101462 c -1.76808,-0.605804 -4.52077,-1.364432 -6.117085,-1.685841 -6.400535,-1.288713 -14.538051,-0.455981 -20.931709,2.141995 -2.098923,0.852869 -2.387178,0.868372 -1.454777,0.07824 z m 59.483201,-6.492987 c -1.37115,-0.473533 -4.0477,-2.598167 -4.0477,-3.213052 0,-0.115602 0.61081,0.06244 1.35732,0.395657 1.69745,0.757667 5.487,1.009269 7.75013,0.514559 0.88451,-0.193347 3.9134,-1.31438 6.73089,-2.491184 7.04715,-2.943439 8.51187,-3.306233 13.45104,-3.331693 2.90993,-0.01499 4.50684,0.112266 5.85788,0.466843 2.25747,0.592472 7.87249,3.305386 7.53156,3.638902 -0.13471,0.131791 -1.46652,0.27081 -2.95956,0.308932 -2.27304,0.05804 -2.99352,-0.03927 -4.42912,-0.598185 -1.37786,-0.536433 -2.41586,-0.690495 -5.28638,-0.784619 -3.12303,-0.102404 -3.92094,-0.0271 -6.34957,0.599216 -1.52774,0.393986 -3.90661,1.19058 -5.28638,1.77021 -1.37978,0.57963 -3.92314,1.551602 -5.65193,2.159937 -3.66432,1.289423 -6.10822,1.448571 -8.66818,0.564477 z"
       id="path9"
       sodipodi:nodetypes="ccccsssssssssssssscsssssssssssssscscsscsssssssscssssssssssssssssscssscssssssssssscssssscssssssssssssssssssssssssssssssssssssssssssssssssscscsssscscssccccsscsscsccsssssssssssssssscsssssscsssssscsssssssssssssscsscccccssscssssscsscsssscccssssssssssssssssssscsssssssssssssscsssssssssssssssssss" /></g></svg>
