<svg
   viewBox="0 0 240 240"
   version="1.1"
   id="svg1"
   sodipodi:docname="ビットマップ.svg"
   xml:space="preserve"
   xmlns:inkscape="http://www.inkscape.org/namespaces/inkscape"
   xmlns:sodipodi="http://sodipodi.sourceforge.net/DTD/sodipodi-0.dtd"
   xmlns="http://www.w3.org/2000/svg"
   xmlns:svg="http://www.w3.org/2000/svg"><sodipodi:namedview
     id="namedview1"
     pagecolor="#ffffff"
     bordercolor="#000000"
     borderopacity="0.25"
     inkscape:showpageshadow="2"
     inkscape:pageopacity="0.0"
     inkscape:pagecheckerboard="0"
     inkscape:deskcolor="#d1d1d1"
     inkscape:document-units="mm"><inkscape:page
       x="0"
       y="0"
       width="240"
       height="240"
       id="page2"
       margin="0"
       bleed="0" /></sodipodi:namedview><defs
     id="defs1"><inkscape:path-effect
       effect="bspline"
       id="path-effect6"
       is_visible="true"
       lpeversion="1.3"
       weight="33.333333"
       steps="2"
       helper_size="0"
       apply_no_weight="true"
       apply_with_weight="true"
       only_selected="false"
       uniform="false" /></defs><g
     id="layer1"><rect
       style="fill:__color4__;fill-opacity:1;stroke:none;stroke-width:4.99999;stroke-linecap:square;stroke-miterlimit:0;stroke-opacity:1"
       id="rect7"
       width="332.47598"
       height="306.85806"
       x="-59.589497"
       y="-32.857761" /><g
       id="g1"
       transform="translate(-1.13177,-0.20948052)"
       style="display:inline"><ellipse
         style="fill:__color1__;fill-opacity:1;stroke-width:4.99999;stroke-linecap:square;stroke-miterlimit:0"
         id="path5"
         cx="50.486912"
         cy="167.27467"
         rx="13.33182"
         ry="13.434175"
         transform="translate(1.13177,0.20948052)" /><path
         style="display:inline;fill:__color1__;fill-opacity:1"
         d="m 195.68286,239.0433 c 0.71988,-1.74219 1.73324,-3.12317 3.30273,-4.50089 5.07643,-4.45619 12.85649,-4.30519 17.76462,0.34479 1.4086,1.33451 2.66505,3.25137 3.1612,4.82277 l 0.15787,0.5 h -12.43425 -12.43425 z m 42.38881,-121.79988 c -10.78232,-4.14745 -18.32517,-12.98096 -20.52194,-24.033452 -0.53808,-2.707212 -0.53587,-7.953714 0.005,-10.762985 1.93516,-10.059947 8.53586,-18.447286 18.06923,-22.96011 1.5804,-0.748118 4.83258,-1.943571 5.2874,-1.943571 0.13655,0 0.22041,11.540824 0.22041,30.333333 0,24.122525 -0.06,30.331795 -0.29297,30.325815 -0.16113,-0.004 -1.40613,-0.43569 -2.76666,-0.95903 z M 184.65275,65.409282 c -4.82527,-1.229432 -8.16076,-6.154315 -7.30357,-10.783787 1.18804,-6.416338 8.38671,-9.899054 14.55583,-7.042104 3.85743,1.786401 6.16226,6.003775 5.44586,9.964858 -1.0485,5.797328 -6.80676,9.362097 -12.69812,7.861033 z"
         id="path2"
         sodipodi:nodetypes="sssscccscscssscccsssss" /></g><g
       id="g4"
       transform="rotate(-90,15,15)"><path
         style="display:inline;fill:__color2__;fill-opacity:1"
         d="m 237.23861,134.54306 c -6.21381,-1.23262 -16.05007,-4.10065 -22.49469,-6.55895 -11.30065,-4.31063 -20.36038,-9.91358 -26.40442,-16.3297 -10.55887,-11.20888 -14.158,-27.480981 -9.1997,-41.592929 0.70729,-2.013023 2.41074,-5.851513 2.5968,-5.851513 0.0391,0 0.41997,0.194922 0.84629,0.43316 0.42631,0.238238 1.40372,0.588238 2.17201,0.777778 5.87918,1.450407 11.55095,-2.094527 12.59597,-7.872657 0.5001,-2.765153 -0.58469,-6.016304 -2.70874,-8.118137 l -1.07622,-1.064967 2.04448,-2.214394 c 6.02728,-6.528189 9.64054,-10.848828 12.27674,-14.680195 1.69441,-2.462593 4.55123,-7.912067 5.68364,-10.841719 1.77075,-4.581114 3.15282,-10.6586126 3.65797,-16.0855352 0.1479,-1.5888889 0.31785,-3.2138889 0.37767,-3.61111116 l 0.10877,-0.72222222 h 11.70813 11.70813 V 28.836052 57.462136 l -1.34766,0.394889 c -2.01524,0.590504 -5.43543,2.171569 -7.62526,3.524956 -7.67636,4.744255 -12.91936,12.306759 -14.60412,21.065002 -0.5404,2.809271 -0.54261,8.055773 -0.005,10.762985 1.17455,5.909446 3.99171,11.437682 8.04028,15.777782 3.46177,3.71104 8.80239,7.07814 13.95926,8.80086 l 1.58203,0.5285 v 8.39087 8.39088 l -0.64453,-0.0197 c -0.35449,-0.0108 -1.81623,-0.25207 -3.2483,-0.53615 z"
         id="path1"
         sodipodi:nodetypes="csssssssscssssscccccssscsscccccc"
         transform="rotate(90,15.670625,14.538855)" /><path
         id="path1-5"
         style="display:inline;fill:__color2__;fill-opacity:1"
         d="m -210,0 v 42.56691 42.566911 l 0.83612,0.331246 c 1.2847,0.50895 4.9827,1.400312 7.2869,1.756482 2.9057,0.44914 9.11368,0.29054 11.79876,-0.30179 6.8259,-1.5058 13.12476,-4.857611 21.0938,-11.224121 2.70896,-2.1642 5.0353,-4.14244 11.0107,-9.36222 2.51847,-2.2 5.91275,-5.12935 7.54269,-6.50968 l 2.12683,-2.312509 -0.5829,-1.098641 c -1.70608,-3.215592 -2.04346,-7.412146 -0.79514,-10.766796 3.01031,-8.08973 13.2445,-10.917791 20.31969,-5.615161 1.03654,0.77685 3.078,3.094517 3.31195,3.759977 0.0527,0.14994 0.51366,0.06236 1.25057,-0.237195 4.47721,-1.82006 11.39531,-3.616123 17.53381,-4.552693 7.76473,-1.18468 14.061961,-1.574353 30.508214,-1.887223 6.574218,-0.12506 13.851827,-0.330323 16.17214,-0.456303 23.746955,-1.28935 40.977903,-7.162832 51.567395,-17.577222 3.4147086,-3.35824 5.4958705,-6.134427 7.6052205,-10.1451169 1.32017,-2.51014 3.0618786,-6.7205386 3.3972086,-8.21241858 L 2.1467389,0 H -103.92689 Z"
         sodipodi:nodetypes="cccsssssccsssscsscsscccc" /></g><g
       id="g6"
       style="display:inline"><path
         style="display:inline;fill:__color3__;fill-opacity:1"
         d="m 198.24081,235.01496 c 0,-0.0462 0.18457,-0.22115 0.41016,-0.38889 0.37173,-0.27642 0.38002,-0.26856 0.0885,0.0839 -0.30618,0.37016 -0.49865,0.48788 -0.49865,0.30499 z M -4.2288446,15.432195 C -1.3224382,11.792036 -0.64007927,7.6432069 1.13177,2.5433058 V 0.20948052 l 54.565624,0.0555548 52.255116,-0.0560442 1.86882,2.72271098 c 7.55339,11.0046569 11.64909,21.8715149 12.93893,34.3300229 0.37361,3.608721 0.3174,11.865008 -0.10727,15.754981 -2.56165,23.464864 -14.9349,47.311934 -34.328959,66.162494 -14.596189,14.18714 -28.366809,21.19928 -45.493995,23.16599 -3.813876,0.43795 -14.442241,1.58172 -18.378284,0.11119 C -32.181702,121.29772 -49.308106,65.67209 -4.2288446,15.432195 Z M 186.24374,46.50261 c 0.16919,-0.06419 0.37134,-0.0563 0.44922,0.01754 0.0779,0.07384 -0.0605,0.126364 -0.30761,0.116715 -0.27304,-0.01066 -0.32857,-0.06332 -0.14161,-0.134259 z m 1.64063,0 c 0.16919,-0.06419 0.37134,-0.0563 0.44922,0.01754 0.0779,0.07384 -0.0605,0.126364 -0.30762,0.116715 -0.27303,-0.01066 -0.32857,-0.06332 -0.1416,-0.134259 z M 217.24369,3.1914499 c 0.0113,-0.2588762 0.0668,-0.3115332 0.1416,-0.1342593 0.0677,0.1604167 0.0594,0.3520834 -0.0185,0.425926 -0.0779,0.073843 -0.13327,-0.057407 -0.1231,-0.2916667 z"
         id="path3"
         sodipodi:nodetypes="ssssssccccssssssssssssssssscssc"
         transform="translate(-1.13177,-0.20948052)" /><path
         style="fill:__color3__;fill-opacity:1;stroke-width:4.99999;stroke-linecap:square;stroke-miterlimit:0"
         d="m 218.81969,240.53923 c -6.72934,-4.40888 -11.83436,-13.04101 -12.66969,-21.39475 -0.83534,-8.35375 2.59888,-16.4288 8.58576,-21.62666 5.98688,-5.19787 14.52602,-7.51829 21.16259,-7.93596 6.63657,-0.41766 11.37022,1.0674 13.64428,8.77148 2.27405,7.70408 2.08842,21.62658 0.46406,30.49079 -1.62436,8.86421 -4.68731,12.66969 -10.39573,14.47965 -5.70842,1.80996 -14.06193,1.62433 -20.79127,-2.78455 z"
         id="path6"
         inkscape:path-effect="#path-effect6"
         inkscape:original-d="m 217.19537,244.76247 c -5.10502,-8.63212 -10.21004,-17.26425 -15.31506,-25.89637 3.43435,-8.07537 6.86857,-16.15042 10.30286,-24.22564 8.53947,-2.3205 17.07861,-4.64092 25.61791,-6.96139 4.73384,1.48513 9.46749,2.9702 14.20124,4.45529 -0.18564,13.92306 -0.37128,27.84556 -0.55691,41.76834 -3.06308,3.80564 -6.12603,7.61112 -9.18904,11.41668 -8.35383,-0.18564 -16.70734,-0.37127 -25.061,-0.55691 z" /></g></g></svg>
