<svg
   viewBox="0 0 240 240"
   version="1.1"
   id="svg1"
   xml:space="preserve"
   xmlns="http://www.w3.org/2000/svg"
   xmlns:svg="http://www.w3.org/2000/svg"><defs
     id="defs1" /><g
     id="layer1"><rect
       style="fill:#f2eaa9;fill-opacity:1;stroke:none;stroke-width:4.99999;stroke-linecap:square;stroke-miterlimit:0;stroke-opacity:1"
       id="rect7"
       width="332.47598"
       height="306.85806"
       x="-59.589497"
       y="-32.857761" /><path
       style="fill:__color1__;fill-opacity:1;stroke:none;stroke-width:4.99999;stroke-linecap:square;stroke-miterlimit:0;stroke-opacity:1"
       d="M 7.9823936,117.87954 C 8.353668,115.28062 8.353668,115.28062 8.353668,115.28062 23.018996,90.219615 37.684324,65.158612 53.092362,58.290152 c 15.408038,-6.86846 31.55814,4.455175 52.721028,6.589932 21.16289,2.134756 47.33719,-4.919311 66.82921,-1.299246 19.49202,3.620064 32.30072,17.913831 36.38469,30.444442 4.08397,12.53061 -0.55686,23.29734 2.04215,37.77722 2.59902,14.47987 12.43759,32.67194 8.53903,49.19379 -3.89855,16.52184 -21.53372,31.37251 -41.86121,40.00466 -20.32749,8.63215 -43.34602,11.04538 -55.31962,4.73357 -11.97361,-6.31181 -12.90177,-21.34811 -22.27662,-26.82436 -9.374849,-5.47626 -27.195655,-1.39232 -43.531864,0.18558 -16.336209,1.57791 -31.186878,0.64974 -34.342623,-8.53946 -3.155745,-9.18921 5.383391,-26.63875 4.640741,-37.96266 C 26.174624,141.2697 16.150425,136.07197 11.509506,130.87408 6.8685863,125.67619 7.6111193,120.47846 7.9823936,117.87954 Z"
       id="path10"
       transform="rotate(116.34434,125.1818,133.11038)" /><path
       style="fill:__color2__;fill-opacity:1;stroke:none;stroke-width:4.99999;stroke-linecap:square;stroke-miterlimit:0;stroke-opacity:1"
       d="m 86.69251,69.892356 c 10.766951,-5.847568 26.36046,-15.871967 38.79824,-16.985712 12.43778,-1.113745 21.71944,6.68285 25.98909,15.315071 4.26965,8.63222 3.52711,18.09952 12.90197,24.504032 9.37487,6.404513 28.86637,9.745913 36.01335,16.800223 7.14698,7.05432 1.94924,17.82106 -1.48506,33.32195 -3.43431,15.5009 -5.10501,35.73494 -13.92292,47.05882 -8.81792,11.32389 -24.78239,13.73712 -36.19914,10.20992 -11.41675,-3.5272 -18.28518,-12.9945 -28.49535,-16.24312 -10.21018,-3.24862 -23.761416,-0.27848 -30.629989,-7.61132 -6.868573,-7.33284 -7.054207,-24.96801 -11.509584,-38.51961 -4.455376,-13.5516 -13.180143,-23.0189 -16.243129,-32.1152 C 58.847003,96.531101 61.445869,87.806333 65.715581,82.608478 69.985294,77.410623 75.92556,75.739923 86.69251,69.892356 Z"
       id="path8" /><path
       style="fill:__color3__;fill-opacity:1;stroke:none;stroke-width:4.99999;stroke-linecap:square;stroke-miterlimit:0;stroke-opacity:1"
       d="m 83.351043,132.26641 c -2.970191,-7.33266 -6.126022,-17.72834 -1.392152,-27.5672 4.733871,-9.838857 17.356939,-19.120524 28.123979,-20.605556 10.76704,-1.485033 19.67744,4.8265 29.98042,6.868485 10.30297,2.041986 21.99787,-0.185614 29.42338,0.556973 7.42552,0.742588 10.58128,4.45525 13.18022,11.695208 2.59894,7.23995 4.64091,18.00668 3.52705,29.79477 -1.11387,11.78808 -5.38344,24.59678 -14.66543,32.48639 -9.282,7.8896 -23.57577,10.85974 -31.651,6.40433 -8.07523,-4.45541 -9.93156,-16.33595 -16.89307,-21.53377 -6.96151,-5.19782 -19.02768,-3.71276 -26.453192,-5.10508 -7.425512,-1.39232 -10.210014,-5.66189 -13.180205,-12.99455 z"
       id="path11" /></g></svg>
