<?xml version="1.0" encoding="UTF-8" standalone="no"?>
<!-- Uploaded to: SVG Repo, www.svgrepo.com, Generator: SVG Repo Mixer Tools -->

<svg
   fill="#000000"
   width="24"
   height="24"
   viewBox="0 0 7.68 7.68"
   id="Flat"
   version="1.1"
   sodipodi:docname="sliders-outline.svg"
   inkscape:version="1.4.2 (f4327f4, 2025-05-13)"
   xmlns:inkscape="http://www.inkscape.org/namespaces/inkscape"
   xmlns:sodipodi="http://sodipodi.sourceforge.net/DTD/sodipodi-0.dtd"
   xmlns="http://www.w3.org/2000/svg"
   xmlns:svg="http://www.w3.org/2000/svg">
  <defs
     id="defs1">
    <inkscape:path-effect
       effect="bspline"
       id="path-effect5"
       is_visible="true"
       lpeversion="1.3"
       weight="33.333333"
       steps="2"
       helper_size="0"
       apply_no_weight="true"
       apply_with_weight="true"
       only_selected="false"
       uniform="false" />
    <inkscape:path-effect
       effect="bspline"
       id="path-effect4"
       is_visible="true"
       lpeversion="1.3"
       weight="33.333333"
       steps="2"
       helper_size="0"
       apply_no_weight="true"
       apply_with_weight="true"
       only_selected="false"
       uniform="false" />
    <inkscape:path-effect
       effect="bspline"
       id="path-effect3"
       is_visible="true"
       lpeversion="1.3"
       weight="33.333333"
       steps="2"
       helper_size="0"
       apply_no_weight="true"
       apply_with_weight="true"
       only_selected="false"
       uniform="false" />
    <inkscape:path-effect
       effect="bspline"
       id="path-effect2"
       is_visible="true"
       lpeversion="1.3"
       weight="33.333333"
       steps="2"
       helper_size="0"
       apply_no_weight="true"
       apply_with_weight="true"
       only_selected="false"
       uniform="false" />
  </defs>
  <sodipodi:namedview
     id="namedview1"
     pagecolor="#ffffff"
     bordercolor="#000000"
     borderopacity="0.25"
     inkscape:showpageshadow="2"
     inkscape:pageopacity="0.0"
     inkscape:pagecheckerboard="0"
     inkscape:deskcolor="#d1d1d1"
     inkscape:zoom="25.145939"
     inkscape:cx="13.62049"
     inkscape:cy="15.489579"
     inkscape:window-width="1920"
     inkscape:window-height="1009"
     inkscape:window-x="-8"
     inkscape:window-y="-8"
     inkscape:window-maximized="1"
     inkscape:current-layer="layer1" />
  <g
     inkscape:groupmode="layer"
     id="layer1"
     inkscape:label="Layer 1">
    <path
       style="fill:none;stroke:#000000;stroke-width:0.48;stroke-linecap:round;stroke-linejoin:round;stroke-miterlimit:0;stroke-dasharray:none"
       d="m 1.12,2.56 c 0.4266667,0 0.8533333,0 1.28,0"
       id="path2"
       sodipodi:nodetypes="cc"
       inkscape:original-d="m 1.12,2.56 c 0.4266667,0 0.8533333,0 1.28,0"
       inkscape:path-effect="#path-effect2"
       transform="translate(0,-0.24000001)" />
    <path
       style="fill:none;stroke:#000000;stroke-width:0.48;stroke-linecap:round;stroke-linejoin:round;stroke-miterlimit:0;stroke-dasharray:none"
       d="m 3.84,2.56 c 0.8533333,0 1.7066668,0 2.56,0"
       id="path3"
       inkscape:path-effect="#path-effect3"
       inkscape:original-d="m 3.84,2.56 c 0.8533333,0 1.7066668,0 2.56,0"
       sodipodi:nodetypes="cc"
       transform="translate(0,-0.24000001)" />
    <path
       style="fill:none;stroke:#000000;stroke-width:0.48;stroke-linecap:round;stroke-linejoin:round;stroke-miterlimit:0;stroke-dasharray:none"
       d="m 1.12,5.12 c 1.0666667,0 2.1333335,0 3.2,0"
       id="path4"
       inkscape:path-effect="#path-effect4"
       inkscape:original-d="m 1.12,5.12 c 1.0666667,0 2.1333335,0 3.2,0"
       sodipodi:nodetypes="cc"
       transform="translate(0,0.23999999)" />
    <path
       style="fill:none;stroke:#000000;stroke-width:0.48;stroke-linecap:round;stroke-linejoin:round;stroke-miterlimit:0;stroke-dasharray:none"
       d="m 5.76,5.12 c 0.2133334,0 0.4266665,0 0.64,0"
       id="path5"
       inkscape:path-effect="#path-effect5"
       inkscape:original-d="m 5.76,5.12 c 0.2133334,0 0.4266665,0 0.64,0"
       sodipodi:nodetypes="cc"
       transform="translate(0,0.23999999)" />
    <path
       id="path6"
       style="fill:#000000;stroke-width:0.427798;stroke-linecap:round;stroke-linejoin:round;stroke-miterlimit:0"
       d="M 3.12,1.6 A 0.72000003,0.72000003 0 0 0 2.4,2.32 0.72000003,0.72000003 0 0 0 3.12,3.04 0.72000003,0.72000003 0 0 0 3.84,2.32 0.72000003,0.72000003 0 0 0 3.12,1.6 Z m 0,0.48 A 0.23999999,0.23999999 0 0 1 3.36,2.32 0.23999999,0.23999999 0 0 1 3.12,2.56 0.23999999,0.23999999 0 0 1 2.88,2.32 0.23999999,0.23999999 0 0 1 3.12,2.08 Z" />
    <path
       id="path6-8"
       style="fill:#000000;stroke-width:0.427798;stroke-linecap:round;stroke-linejoin:round;stroke-miterlimit:0"
       d="M 5.04,4.64 A 0.72000003,0.72000003 0 0 0 4.32,5.36 0.72000003,0.72000003 0 0 0 5.04,6.08 0.72000003,0.72000003 0 0 0 5.76,5.36 0.72000003,0.72000003 0 0 0 5.04,4.64 Z m 0,0.48 A 0.23999999,0.23999999 0 0 1 5.28,5.36 0.23999999,0.23999999 0 0 1 5.04,5.6 0.23999999,0.23999999 0 0 1 4.8,5.36 0.23999999,0.23999999 0 0 1 5.04,5.12 Z"
       inkscape:label="path7" />
  </g>
</svg>
